<svg xmlns="http://www.w3.org/2000/svg" viewBox="0 0 640 420" role="img" aria-label="Aconcagua"><rect width="640" height="420" fill="#e7f0f4"/><circle cx="514" cy="80" r="42" fill="#f3c65d"/><rect y="314" width="640" height="106" fill="#b7c98c"/><text x="320" y="54" text-anchor="middle" font-family="Arial, sans-serif" font-size="28" font-weight="700" fill="#263238">Aconcagua</text><text x="320" y="88" text-anchor="middle" font-family="Arial, sans-serif" font-size="18" fill="#52636b">Andes - Argentina - 6,962 m</text><path d="M48 326 194 170 278 236 312 178 404 232 473 186 592 326z" fill="#7b7f6f"/><path d="M194 170 152 234 212 212 260 254 288 216zM312 178 254 272 332 234 384 286 428 236zM473 186 423 260 485 232 545 280 579 240z" fill="#f6f1e8"/><path d="M96 326c54-36 104-52 150-48M286 326c52-44 104-64 156-60M436 326c32-30 70-44 114-42" fill="none" stroke="#4a433a" stroke-width="8" stroke-linecap="round" opacity=".45"/><path d="M48 326h544" stroke="#4a433a" stroke-width="10" stroke-linecap="round"/></svg>