<svg xmlns="http://www.w3.org/2000/svg" viewBox="0 0 640 420" role="img" aria-label="Annapurna I"><rect width="640" height="420" fill="#e7f0f4"/><circle cx="517" cy="75" r="42" fill="#f3c65d"/><rect y="314" width="640" height="106" fill="#b7c98c"/><text x="320" y="54" text-anchor="middle" font-family="Arial, sans-serif" font-size="28" font-weight="700" fill="#263238">Annapurna I</text><text x="320" y="88" text-anchor="middle" font-family="Arial, sans-serif" font-size="18" fill="#52636b">Himalaya - Nepal - 8,091 m</text><path d="M48 326 207 111 291 236 333 104 425 232 454 126 592 326z" fill="#6c7480"/><path d="M207 111 165 175 225 153 273 195 301 157zM333 104 275 198 353 160 405 212 449 162zM454 126 404 200 466 172 526 220 560 180z" fill="#f6f1e8"/><path d="M96 326c54-36 104-52 150-48M286 326c52-44 104-64 156-60M436 326c32-30 70-44 114-42" fill="none" stroke="#4a433a" stroke-width="8" stroke-linecap="round" opacity=".45"/><path d="M48 326h544" stroke="#4a433a" stroke-width="10" stroke-linecap="round"/></svg>