<svg xmlns="http://www.w3.org/2000/svg" viewBox="0 0 640 420" role="img" aria-label="Annapurna II"><rect width="640" height="420" fill="#e7f0f4"/><circle cx="522" cy="76" r="42" fill="#f3c65d"/><rect y="314" width="640" height="106" fill="#b7c98c"/><text x="320" y="54" text-anchor="middle" font-family="Arial, sans-serif" font-size="28" font-weight="700" fill="#263238">Annapurna II</text><text x="320" y="88" text-anchor="middle" font-family="Arial, sans-serif" font-size="18" fill="#52636b">Himalaya - Nepal - 7,937 m</text><path d="M48 326 196 128 280 236 332 90 424 232 441 118 592 326z" fill="#6c7480"/><path d="M196 128 154 192 214 170 262 212 290 174zM332 90 274 184 352 146 404 198 448 148zM441 118 391 192 453 164 513 212 547 172z" fill="#f6f1e8"/><path d="M96 326c54-36 104-52 150-48M286 326c52-44 104-64 156-60M436 326c32-30 70-44 114-42" fill="none" stroke="#4a433a" stroke-width="8" stroke-linecap="round" opacity=".45"/><path d="M48 326h544" stroke="#4a433a" stroke-width="10" stroke-linecap="round"/></svg>