<svg xmlns="http://www.w3.org/2000/svg" viewBox="0 0 640 420" role="img" aria-label="Aoraki / Mount Cook"><rect width="640" height="420" fill="#e7f0f4"/><circle cx="503" cy="83" r="42" fill="#f3c65d"/><rect y="314" width="640" height="106" fill="#b7c98c"/><text x="320" y="54" text-anchor="middle" font-family="Arial, sans-serif" font-size="28" font-weight="700" fill="#263238">Aoraki / Mount Cook</text><text x="320" y="88" text-anchor="middle" font-family="Arial, sans-serif" font-size="18" fill="#52636b">Southern Alps - New Zealand - 3,724 m</text><path d="M48 326 209 185 293 236 337 156 429 232 464 198 592 326z" fill="#7b7f6f"/><path d="M209 185 167 249 227 227 275 269 303 231zM337 156 279 250 357 212 409 264 453 214zM464 198 414 272 476 244 536 292 570 252z" fill="#f6f1e8"/><path d="M96 326c54-36 104-52 150-48M286 326c52-44 104-64 156-60M436 326c32-30 70-44 114-42" fill="none" stroke="#4a433a" stroke-width="8" stroke-linecap="round" opacity=".45"/><path d="M48 326h544" stroke="#4a433a" stroke-width="10" stroke-linecap="round"/></svg>