<svg xmlns="http://www.w3.org/2000/svg" viewBox="0 0 640 420" role="img" aria-label="Batura Sar"><rect width="640" height="420" fill="#e7f0f4"/><circle cx="515" cy="91" r="42" fill="#f3c65d"/><rect y="314" width="640" height="106" fill="#b7c98c"/><text x="320" y="54" text-anchor="middle" font-family="Arial, sans-serif" font-size="28" font-weight="700" fill="#263238">Batura Sar</text><text x="320" y="88" text-anchor="middle" font-family="Arial, sans-serif" font-size="18" fill="#52636b">Karakoram - Pakistan - 7,795 m</text><path d="M48 326 187 119 271 236 329 88 421 232 438 130 592 326z" fill="#58616d"/><path d="M187 119 145 183 205 161 253 203 281 165zM329 88 271 182 349 144 401 196 445 146zM438 130 388 204 450 176 510 224 544 184z" fill="#f6f1e8"/><path d="M96 326c54-36 104-52 150-48M286 326c52-44 104-64 156-60M436 326c32-30 70-44 114-42" fill="none" stroke="#4a433a" stroke-width="8" stroke-linecap="round" opacity=".45"/><path d="M48 326h544" stroke="#4a433a" stroke-width="10" stroke-linecap="round"/></svg>