<svg xmlns="http://www.w3.org/2000/svg" viewBox="0 0 640 420" role="img" aria-label="Broad Peak"><rect width="640" height="420" fill="#e7f0f4"/><circle cx="521" cy="87" r="42" fill="#f3c65d"/><rect y="314" width="640" height="106" fill="#b7c98c"/><text x="320" y="54" text-anchor="middle" font-family="Arial, sans-serif" font-size="28" font-weight="700" fill="#263238">Broad Peak</text><text x="320" y="88" text-anchor="middle" font-family="Arial, sans-serif" font-size="18" fill="#52636b">Karakoram - Pakistan/China - 8,051 m</text><path d="M48 326 201 119 285 236 333 96 425 232 466 138 592 326z" fill="#58616d"/><path d="M201 119 159 183 219 161 267 203 295 165zM333 96 275 190 353 152 405 204 449 154zM466 138 416 212 478 184 538 232 572 192z" fill="#f6f1e8"/><path d="M96 326c54-36 104-52 150-48M286 326c52-44 104-64 156-60M436 326c32-30 70-44 114-42" fill="none" stroke="#4a433a" stroke-width="8" stroke-linecap="round" opacity=".45"/><path d="M48 326h544" stroke="#4a433a" stroke-width="10" stroke-linecap="round"/></svg>