<svg xmlns="http://www.w3.org/2000/svg" viewBox="0 0 640 420" role="img" aria-label="Cho Oyu"><rect width="640" height="420" fill="#e7f0f4"/><circle cx="519" cy="77" r="42" fill="#f3c65d"/><rect y="314" width="640" height="106" fill="#b7c98c"/><text x="320" y="54" text-anchor="middle" font-family="Arial, sans-serif" font-size="28" font-weight="700" fill="#263238">Cho Oyu</text><text x="320" y="88" text-anchor="middle" font-family="Arial, sans-serif" font-size="18" fill="#52636b">Himalaya - China/Nepal - 8,188 m</text><path d="M48 326 179 125 263 236 303 92 395 232 440 122 592 326z" fill="#6c7480"/><path d="M179 125 137 189 197 167 245 209 273 171zM303 92 245 186 323 148 375 200 419 150zM440 122 390 196 452 168 512 216 546 176z" fill="#f6f1e8"/><path d="M96 326c54-36 104-52 150-48M286 326c52-44 104-64 156-60M436 326c32-30 70-44 114-42" fill="none" stroke="#4a433a" stroke-width="8" stroke-linecap="round" opacity=".45"/><path d="M48 326h544" stroke="#4a433a" stroke-width="10" stroke-linecap="round"/></svg>