<svg xmlns="http://www.w3.org/2000/svg" viewBox="0 0 640 420" role="img" aria-label="Chomo Lonzo"><rect width="640" height="420" fill="#e7f0f4"/><circle cx="510" cy="78" r="42" fill="#f3c65d"/><rect y="314" width="640" height="106" fill="#b7c98c"/><text x="320" y="54" text-anchor="middle" font-family="Arial, sans-serif" font-size="28" font-weight="700" fill="#263238">Chomo Lonzo</text><text x="320" y="88" text-anchor="middle" font-family="Arial, sans-serif" font-size="18" fill="#52636b">Himalaya - China - 7,804 m</text><path d="M48 326 192 110 276 236 326 94 418 232 463 144 592 326z" fill="#6c7480"/><path d="M192 110 150 174 210 152 258 194 286 156zM326 94 268 188 346 150 398 202 442 152zM463 144 413 218 475 190 535 238 569 198z" fill="#f6f1e8"/><path d="M96 326c54-36 104-52 150-48M286 326c52-44 104-64 156-60M436 326c32-30 70-44 114-42" fill="none" stroke="#4a433a" stroke-width="8" stroke-linecap="round" opacity=".45"/><path d="M48 326h544" stroke="#4a433a" stroke-width="10" stroke-linecap="round"/></svg>