<svg xmlns="http://www.w3.org/2000/svg" viewBox="0 0 640 420" role="img" aria-label="Denali"><rect width="640" height="420" fill="#e7f0f4"/><circle cx="511" cy="83" r="42" fill="#f3c65d"/><rect y="314" width="640" height="106" fill="#b7c98c"/><text x="320" y="54" text-anchor="middle" font-family="Arial, sans-serif" font-size="28" font-weight="700" fill="#263238">Denali</text><text x="320" y="88" text-anchor="middle" font-family="Arial, sans-serif" font-size="18" fill="#52636b">Alaska Range - United States - 6,190 m</text><path d="M48 326 179 169 263 236 309 172 401 232 440 198 592 326z" fill="#7b7f6f"/><path d="M179 169 137 233 197 211 245 253 273 215zM309 172 251 266 329 228 381 280 425 230zM440 198 390 272 452 244 512 292 546 252z" fill="#f6f1e8"/><path d="M96 326c54-36 104-52 150-48M286 326c52-44 104-64 156-60M436 326c32-30 70-44 114-42" fill="none" stroke="#4a433a" stroke-width="8" stroke-linecap="round" opacity=".45"/><path d="M48 326h544" stroke="#4a433a" stroke-width="10" stroke-linecap="round"/></svg>