<svg xmlns="http://www.w3.org/2000/svg" viewBox="0 0 640 420" role="img" aria-label="Dhaulagiri II"><rect width="640" height="420" fill="#e7f0f4"/><circle cx="506" cy="90" r="42" fill="#f3c65d"/><rect y="314" width="640" height="106" fill="#b7c98c"/><text x="320" y="54" text-anchor="middle" font-family="Arial, sans-serif" font-size="28" font-weight="700" fill="#263238">Dhaulagiri II</text><text x="320" y="88" text-anchor="middle" font-family="Arial, sans-serif" font-size="18" fill="#52636b">Himalaya - Nepal - 7,751 m</text><path d="M48 326 198 130 282 236 326 102 418 232 451 132 592 326z" fill="#6c7480"/><path d="M198 130 156 194 216 172 264 214 292 176zM326 102 268 196 346 158 398 210 442 160zM451 132 401 206 463 178 523 226 557 186z" fill="#f6f1e8"/><path d="M96 326c54-36 104-52 150-48M286 326c52-44 104-64 156-60M436 326c32-30 70-44 114-42" fill="none" stroke="#4a433a" stroke-width="8" stroke-linecap="round" opacity=".45"/><path d="M48 326h544" stroke="#4a433a" stroke-width="10" stroke-linecap="round"/></svg>