<svg xmlns="http://www.w3.org/2000/svg" viewBox="0 0 640 420" role="img" aria-label="Dhaulagiri I"><rect width="640" height="420" fill="#e7f0f4"/><circle cx="501" cy="89" r="42" fill="#f3c65d"/><rect y="314" width="640" height="106" fill="#b7c98c"/><text x="320" y="54" text-anchor="middle" font-family="Arial, sans-serif" font-size="28" font-weight="700" fill="#263238">Dhaulagiri I</text><text x="320" y="88" text-anchor="middle" font-family="Arial, sans-serif" font-size="18" fill="#52636b">Himalaya - Nepal - 8,167 m</text><path d="M48 326 209 113 293 236 327 84 419 232 464 140 592 326z" fill="#6c7480"/><path d="M209 113 167 177 227 155 275 197 303 159zM327 84 269 178 347 140 399 192 443 142zM464 140 414 214 476 186 536 234 570 194z" fill="#f6f1e8"/><path d="M96 326c54-36 104-52 150-48M286 326c52-44 104-64 156-60M436 326c32-30 70-44 114-42" fill="none" stroke="#4a433a" stroke-width="8" stroke-linecap="round" opacity=".45"/><path d="M48 326h544" stroke="#4a433a" stroke-width="10" stroke-linecap="round"/></svg>