<svg xmlns="http://www.w3.org/2000/svg" viewBox="0 0 640 420" role="img" aria-label="Distaghil Sar"><rect width="640" height="420" fill="#e7f0f4"/><circle cx="523" cy="93" r="42" fill="#f3c65d"/><rect y="314" width="640" height="106" fill="#b7c98c"/><text x="320" y="54" text-anchor="middle" font-family="Arial, sans-serif" font-size="28" font-weight="700" fill="#263238">Distaghil Sar</text><text x="320" y="88" text-anchor="middle" font-family="Arial, sans-serif" font-size="18" fill="#52636b">Karakoram - Pakistan - 7,884 m</text><path d="M48 326 207 125 291 236 303 108 395 232 454 126 592 326z" fill="#58616d"/><path d="M207 125 165 189 225 167 273 209 301 171zM303 108 245 202 323 164 375 216 419 166zM454 126 404 200 466 172 526 220 560 180z" fill="#f6f1e8"/><path d="M96 326c54-36 104-52 150-48M286 326c52-44 104-64 156-60M436 326c32-30 70-44 114-42" fill="none" stroke="#4a433a" stroke-width="8" stroke-linecap="round" opacity=".45"/><path d="M48 326h544" stroke="#4a433a" stroke-width="10" stroke-linecap="round"/></svg>