<svg xmlns="http://www.w3.org/2000/svg" viewBox="0 0 640 420" role="img" aria-label="Gasherbrum I"><rect width="640" height="420" fill="#e7f0f4"/><circle cx="523" cy="87" r="42" fill="#f3c65d"/><rect y="314" width="640" height="106" fill="#b7c98c"/><text x="320" y="54" text-anchor="middle" font-family="Arial, sans-serif" font-size="28" font-weight="700" fill="#263238">Gasherbrum I</text><text x="320" y="88" text-anchor="middle" font-family="Arial, sans-serif" font-size="18" fill="#52636b">Karakoram - Pakistan/China - 8,080 m</text><path d="M48 326 189 135 273 236 305 96 397 232 448 138 592 326z" fill="#58616d"/><path d="M189 135 147 199 207 177 255 219 283 181zM305 96 247 190 325 152 377 204 421 154zM448 138 398 212 460 184 520 232 554 192z" fill="#f6f1e8"/><path d="M96 326c54-36 104-52 150-48M286 326c52-44 104-64 156-60M436 326c32-30 70-44 114-42" fill="none" stroke="#4a433a" stroke-width="8" stroke-linecap="round" opacity=".45"/><path d="M48 326h544" stroke="#4a433a" stroke-width="10" stroke-linecap="round"/></svg>