<svg xmlns="http://www.w3.org/2000/svg" viewBox="0 0 640 420" role="img" aria-label="Gasherbrum II"><rect width="640" height="420" fill="#e7f0f4"/><circle cx="528" cy="88" r="42" fill="#f3c65d"/><rect y="314" width="640" height="106" fill="#b7c98c"/><text x="320" y="54" text-anchor="middle" font-family="Arial, sans-serif" font-size="28" font-weight="700" fill="#263238">Gasherbrum II</text><text x="320" y="88" text-anchor="middle" font-family="Arial, sans-serif" font-size="18" fill="#52636b">Karakoram - Pakistan/China - 8,035 m</text><path d="M48 326 178 124 262 236 304 82 396 232 435 130 592 326z" fill="#58616d"/><path d="M178 124 136 188 196 166 244 208 272 170zM304 82 246 176 324 138 376 190 420 140zM435 130 385 204 447 176 507 224 541 184z" fill="#f6f1e8"/><path d="M96 326c54-36 104-52 150-48M286 326c52-44 104-64 156-60M436 326c32-30 70-44 114-42" fill="none" stroke="#4a433a" stroke-width="8" stroke-linecap="round" opacity=".45"/><path d="M48 326h544" stroke="#4a433a" stroke-width="10" stroke-linecap="round"/></svg>