<svg xmlns="http://www.w3.org/2000/svg" viewBox="0 0 640 420" role="img" aria-label="Gyachung Kang"><rect width="640" height="420" fill="#e7f0f4"/><circle cx="515" cy="85" r="42" fill="#f3c65d"/><rect y="314" width="640" height="106" fill="#b7c98c"/><text x="320" y="54" text-anchor="middle" font-family="Arial, sans-serif" font-size="28" font-weight="700" fill="#263238">Gyachung Kang</text><text x="320" y="88" text-anchor="middle" font-family="Arial, sans-serif" font-size="18" fill="#52636b">Himalaya - Nepal/China - 7,952 m</text><path d="M48 326 199 117 283 236 323 92 415 232 456 124 592 326z" fill="#6c7480"/><path d="M199 117 157 181 217 159 265 201 293 163zM323 92 265 186 343 148 395 200 439 150zM456 124 406 198 468 170 528 218 562 178z" fill="#f6f1e8"/><path d="M96 326c54-36 104-52 150-48M286 326c52-44 104-64 156-60M436 326c32-30 70-44 114-42" fill="none" stroke="#4a433a" stroke-width="8" stroke-linecap="round" opacity=".45"/><path d="M48 326h544" stroke="#4a433a" stroke-width="10" stroke-linecap="round"/></svg>