<svg xmlns="http://www.w3.org/2000/svg" viewBox="0 0 640 420" role="img" aria-label="Himalchuli"><rect width="640" height="420" fill="#e7f0f4"/><circle cx="504" cy="86" r="42" fill="#f3c65d"/><rect y="314" width="640" height="106" fill="#b7c98c"/><text x="320" y="54" text-anchor="middle" font-family="Arial, sans-serif" font-size="28" font-weight="700" fill="#263238">Himalchuli</text><text x="320" y="88" text-anchor="middle" font-family="Arial, sans-serif" font-size="18" fill="#52636b">Himalaya - Nepal - 7,893 m</text><path d="M48 326 194 126 278 236 338 78 430 232 473 134 592 326z" fill="#6c7480"/><path d="M194 126 152 190 212 168 260 210 288 172zM338 78 280 172 358 134 410 186 454 136zM473 134 423 208 485 180 545 228 579 188z" fill="#f6f1e8"/><path d="M96 326c54-36 104-52 150-48M286 326c52-44 104-64 156-60M436 326c32-30 70-44 114-42" fill="none" stroke="#4a433a" stroke-width="8" stroke-linecap="round" opacity=".45"/><path d="M48 326h544" stroke="#4a433a" stroke-width="10" stroke-linecap="round"/></svg>