<svg xmlns="http://www.w3.org/2000/svg" viewBox="0 0 640 420" role="img" aria-label="Kangchenjunga"><rect width="640" height="420" fill="#e7f0f4"/><circle cx="506" cy="82" r="42" fill="#f3c65d"/><rect y="314" width="640" height="106" fill="#b7c98c"/><text x="320" y="54" text-anchor="middle" font-family="Arial, sans-serif" font-size="28" font-weight="700" fill="#263238">Kangchenjunga</text><text x="320" y="88" text-anchor="middle" font-family="Arial, sans-serif" font-size="18" fill="#52636b">Himalaya - Nepal/India - 8,586 m</text><path d="M48 326 208 126 292 236 338 86 430 232 459 136 592 326z" fill="#6c7480"/><path d="M208 126 166 190 226 168 274 210 302 172zM338 86 280 180 358 142 410 194 454 144zM459 136 409 210 471 182 531 230 565 190z" fill="#f6f1e8"/><path d="M96 326c54-36 104-52 150-48M286 326c52-44 104-64 156-60M436 326c32-30 70-44 114-42" fill="none" stroke="#4a433a" stroke-width="8" stroke-linecap="round" opacity=".45"/><path d="M48 326h544" stroke="#4a433a" stroke-width="10" stroke-linecap="round"/></svg>