<svg xmlns="http://www.w3.org/2000/svg" viewBox="0 0 640 420" role="img" aria-label="Kanjut Sar"><rect width="640" height="420" fill="#e7f0f4"/><circle cx="529" cy="81" r="42" fill="#f3c65d"/><rect y="314" width="640" height="106" fill="#b7c98c"/><text x="320" y="54" text-anchor="middle" font-family="Arial, sans-serif" font-size="28" font-weight="700" fill="#263238">Kanjut Sar</text><text x="320" y="88" text-anchor="middle" font-family="Arial, sans-serif" font-size="18" fill="#52636b">Karakoram - Pakistan - 7,760 m</text><path d="M48 326 201 133 285 236 327 84 419 232 466 126 592 326z" fill="#58616d"/><path d="M201 133 159 197 219 175 267 217 295 179zM327 84 269 178 347 140 399 192 443 142zM466 126 416 200 478 172 538 220 572 180z" fill="#f6f1e8"/><path d="M96 326c54-36 104-52 150-48M286 326c52-44 104-64 156-60M436 326c32-30 70-44 114-42" fill="none" stroke="#4a433a" stroke-width="8" stroke-linecap="round" opacity=".45"/><path d="M48 326h544" stroke="#4a433a" stroke-width="10" stroke-linecap="round"/></svg>