<svg xmlns="http://www.w3.org/2000/svg" viewBox="0 0 640 420" role="img" aria-label="Khunyang Chhish"><rect width="640" height="420" fill="#e7f0f4"/><circle cx="506" cy="74" r="42" fill="#f3c65d"/><rect y="314" width="640" height="106" fill="#b7c98c"/><text x="320" y="54" text-anchor="middle" font-family="Arial, sans-serif" font-size="28" font-weight="700" fill="#263238">Khunyang Chhish</text><text x="320" y="88" text-anchor="middle" font-family="Arial, sans-serif" font-size="18" fill="#52636b">Karakoram - Pakistan - 7,823 m</text><path d="M48 326 218 122 302 236 306 102 398 232 467 140 592 326z" fill="#58616d"/><path d="M218 122 176 186 236 164 284 206 312 168zM306 102 248 196 326 158 378 210 422 160zM467 140 417 214 479 186 539 234 573 194z" fill="#f6f1e8"/><path d="M96 326c54-36 104-52 150-48M286 326c52-44 104-64 156-60M436 326c32-30 70-44 114-42" fill="none" stroke="#4a433a" stroke-width="8" stroke-linecap="round" opacity=".45"/><path d="M48 326h544" stroke="#4a433a" stroke-width="10" stroke-linecap="round"/></svg>