<svg xmlns="http://www.w3.org/2000/svg" viewBox="0 0 640 420" role="img" aria-label="Lhotse"><rect width="640" height="420" fill="#e7f0f4"/><circle cx="511" cy="93" r="42" fill="#f3c65d"/><rect y="314" width="640" height="106" fill="#b7c98c"/><text x="320" y="54" text-anchor="middle" font-family="Arial, sans-serif" font-size="28" font-weight="700" fill="#263238">Lhotse</text><text x="320" y="88" text-anchor="middle" font-family="Arial, sans-serif" font-size="18" fill="#52636b">Himalaya - Nepal/China - 8,516 m</text><path d="M48 326 213 117 297 236 323 108 415 232 442 120 592 326z" fill="#6c7480"/><path d="M213 117 171 181 231 159 279 201 307 163zM323 108 265 202 343 164 395 216 439 166zM442 120 392 194 454 166 514 214 548 174z" fill="#f6f1e8"/><path d="M96 326c54-36 104-52 150-48M286 326c52-44 104-64 156-60M436 326c32-30 70-44 114-42" fill="none" stroke="#4a433a" stroke-width="8" stroke-linecap="round" opacity=".45"/><path d="M48 326h544" stroke="#4a433a" stroke-width="10" stroke-linecap="round"/></svg>