<svg xmlns="http://www.w3.org/2000/svg" viewBox="0 0 640 420" role="img" aria-label="Makalu"><rect width="640" height="420" fill="#e7f0f4"/><circle cx="525" cy="73" r="42" fill="#f3c65d"/><rect y="314" width="640" height="106" fill="#b7c98c"/><text x="320" y="54" text-anchor="middle" font-family="Arial, sans-serif" font-size="28" font-weight="700" fill="#263238">Makalu</text><text x="320" y="88" text-anchor="middle" font-family="Arial, sans-serif" font-size="18" fill="#52636b">Himalaya - Nepal/China - 8,485 m</text><path d="M48 326 193 125 277 236 307 100 399 232 468 130 592 326z" fill="#6c7480"/><path d="M193 125 151 189 211 167 259 209 287 171zM307 100 249 194 327 156 379 208 423 158zM468 130 418 204 480 176 540 224 574 184z" fill="#f6f1e8"/><path d="M96 326c54-36 104-52 150-48M286 326c52-44 104-64 156-60M436 326c32-30 70-44 114-42" fill="none" stroke="#4a433a" stroke-width="8" stroke-linecap="round" opacity=".45"/><path d="M48 326h544" stroke="#4a433a" stroke-width="10" stroke-linecap="round"/></svg>