<svg xmlns="http://www.w3.org/2000/svg" viewBox="0 0 640 420" role="img" aria-label="Manaslu"><rect width="640" height="420" fill="#e7f0f4"/><circle cx="507" cy="71" r="42" fill="#f3c65d"/><rect y="314" width="640" height="106" fill="#b7c98c"/><text x="320" y="54" text-anchor="middle" font-family="Arial, sans-serif" font-size="28" font-weight="700" fill="#263238">Manaslu</text><text x="320" y="88" text-anchor="middle" font-family="Arial, sans-serif" font-size="18" fill="#52636b">Himalaya - Nepal - 8,163 m</text><path d="M48 326 185 131 269 236 309 80 401 232 470 122 592 326z" fill="#6c7480"/><path d="M185 131 143 195 203 173 251 215 279 177zM309 80 251 174 329 136 381 188 425 138zM470 122 420 196 482 168 542 216 576 176z" fill="#f6f1e8"/><path d="M96 326c54-36 104-52 150-48M286 326c52-44 104-64 156-60M436 326c32-30 70-44 114-42" fill="none" stroke="#4a433a" stroke-width="8" stroke-linecap="round" opacity=".45"/><path d="M48 326h544" stroke="#4a433a" stroke-width="10" stroke-linecap="round"/></svg>