<svg xmlns="http://www.w3.org/2000/svg" viewBox="0 0 640 420" role="img" aria-label="Masherbrum"><rect width="640" height="420" fill="#e7f0f4"/><circle cx="526" cy="84" r="42" fill="#f3c65d"/><rect y="314" width="640" height="106" fill="#b7c98c"/><text x="320" y="54" text-anchor="middle" font-family="Arial, sans-serif" font-size="28" font-weight="700" fill="#263238">Masherbrum</text><text x="320" y="88" text-anchor="middle" font-family="Arial, sans-serif" font-size="18" fill="#52636b">Karakoram - Pakistan - 7,821 m</text><path d="M48 326 216 120 300 236 316 90 408 232 457 132 592 326z" fill="#58616d"/><path d="M216 120 174 184 234 162 282 204 310 166zM316 90 258 184 336 146 388 198 432 148zM457 132 407 206 469 178 529 226 563 186z" fill="#f6f1e8"/><path d="M96 326c54-36 104-52 150-48M286 326c52-44 104-64 156-60M436 326c32-30 70-44 114-42" fill="none" stroke="#4a433a" stroke-width="8" stroke-linecap="round" opacity=".45"/><path d="M48 326h544" stroke="#4a433a" stroke-width="10" stroke-linecap="round"/></svg>