<svg xmlns="http://www.w3.org/2000/svg" viewBox="0 0 640 420" role="img" aria-label="Mont Blanc"><rect width="640" height="420" fill="#e7f0f4"/><circle cx="508" cy="84" r="42" fill="#f3c65d"/><rect y="314" width="640" height="106" fill="#b7c98c"/><text x="320" y="54" text-anchor="middle" font-family="Arial, sans-serif" font-size="28" font-weight="700" fill="#263238">Mont Blanc</text><text x="320" y="88" text-anchor="middle" font-family="Arial, sans-serif" font-size="18" fill="#52636b">Alps - France/Italy - 4,807 m</text><path d="M48 326 180 170 264 236 308 166 400 232 445 202 592 326z" fill="#7b7f6f"/><path d="M180 170 138 234 198 212 246 254 274 216zM308 166 250 260 328 222 380 274 424 224zM445 202 395 276 457 248 517 296 551 256z" fill="#f6f1e8"/><path d="M96 326c54-36 104-52 150-48M286 326c52-44 104-64 156-60M436 326c32-30 70-44 114-42" fill="none" stroke="#4a433a" stroke-width="8" stroke-linecap="round" opacity=".45"/><path d="M48 326h544" stroke="#4a433a" stroke-width="10" stroke-linecap="round"/></svg>