<svg xmlns="http://www.w3.org/2000/svg" viewBox="0 0 640 420" role="img" aria-label="Mount Vinson"><rect width="640" height="420" fill="#e7f0f4"/><circle cx="510" cy="70" r="42" fill="#f3c65d"/><rect y="314" width="640" height="106" fill="#dfe8ea"/><text x="320" y="54" text-anchor="middle" font-family="Arial, sans-serif" font-size="28" font-weight="700" fill="#263238">Mount Vinson</text><text x="320" y="88" text-anchor="middle" font-family="Arial, sans-serif" font-size="18" fill="#52636b">Sentinel Range - Antarctica - 4,892 m</text><path d="M48 326 202 192 286 236 338 170 430 232 471 178 592 326z" fill="#9aa2a8"/><path d="M202 192 160 256 220 234 268 276 296 238zM338 170 280 264 358 226 410 278 454 228zM471 178 421 252 483 224 543 272 577 232z" fill="#f6f1e8"/><path d="M96 326c54-36 104-52 150-48M286 326c52-44 104-64 156-60M436 326c32-30 70-44 114-42" fill="none" stroke="#4a433a" stroke-width="8" stroke-linecap="round" opacity=".45"/><path d="M48 326h544" stroke="#4a433a" stroke-width="10" stroke-linecap="round"/></svg>