<svg xmlns="http://www.w3.org/2000/svg" viewBox="0 0 640 420" role="img" aria-label="Mount Kosciuszko"><rect width="640" height="420" fill="#e7f0f4"/><circle cx="508" cy="78" r="42" fill="#f3c65d"/><rect y="314" width="640" height="106" fill="#b7c98c"/><text x="320" y="54" text-anchor="middle" font-family="Arial, sans-serif" font-size="28" font-weight="700" fill="#263238">Mount Kosciuszko</text><text x="320" y="88" text-anchor="middle" font-family="Arial, sans-serif" font-size="18" fill="#52636b">Snowy Mountains - Australia - 2,228 m</text><path d="M48 326 180 184 264 236 338 166 430 232 445 178 592 326z" fill="#7b7f6f"/><path d="M180 184 138 248 198 226 246 268 274 230zM338 166 280 260 358 222 410 274 454 224zM445 178 395 252 457 224 517 272 551 232z" fill="#f6f1e8"/><path d="M96 326c54-36 104-52 150-48M286 326c52-44 104-64 156-60M436 326c32-30 70-44 114-42" fill="none" stroke="#4a433a" stroke-width="8" stroke-linecap="round" opacity=".45"/><path d="M48 326h544" stroke="#4a433a" stroke-width="10" stroke-linecap="round"/></svg>