<svg xmlns="http://www.w3.org/2000/svg" viewBox="0 0 640 420" role="img" aria-label="Mount Rainier"><rect width="640" height="420" fill="#e7f0f4"/><circle cx="514" cy="84" r="46" fill="#f3c65d"/><rect y="314" width="640" height="106" fill="#b7c98c"/><path d="M56 326 214 120l78 112 82-146 206 240z" fill="#8f795f"/><path d="M214 120 166 183l54-14 36 46 36-47zM374 86l-62 110 70-28 44 54 44-55z" fill="#f6f1e8"/><path d="M56 326h524" stroke="#4a433a" stroke-width="10" stroke-linecap="round"/><path d="M146 205c44 28 88 31 132 0M322 181c50 32 98 32 148 0" fill="none" stroke="#f6f1e8" stroke-width="8" stroke-linecap="round"/><text x="320" y="54" text-anchor="middle" font-family="Arial, sans-serif" font-size="28" font-weight="700" fill="#263238">Mount Rainier</text><text x="320" y="88" text-anchor="middle" font-family="Arial, sans-serif" font-size="18" fill="#52636b">Cascade Range - United States - 4,392 m</text></svg>