<svg xmlns="http://www.w3.org/2000/svg" viewBox="0 0 640 420" role="img" aria-label="Mount Everest"><rect width="640" height="420" fill="#e7f0f4"/><circle cx="505" cy="71" r="42" fill="#f3c65d"/><rect y="314" width="640" height="106" fill="#b7c98c"/><text x="320" y="54" text-anchor="middle" font-family="Arial, sans-serif" font-size="28" font-weight="700" fill="#263238">Mount Everest</text><text x="320" y="88" text-anchor="middle" font-family="Arial, sans-serif" font-size="18" fill="#52636b">Himalaya - Nepal/China - 8,849 m</text><path d="M48 326 215 119 299 236 321 80 413 232 452 146 592 326z" fill="#6c7480"/><path d="M215 119 173 183 233 161 281 203 309 165zM321 80 263 174 341 136 393 188 437 138zM452 146 402 220 464 192 524 240 558 200z" fill="#f6f1e8"/><path d="M96 326c54-36 104-52 150-48M286 326c52-44 104-64 156-60M436 326c32-30 70-44 114-42" fill="none" stroke="#4a433a" stroke-width="8" stroke-linecap="round" opacity=".45"/><path d="M48 326h544" stroke="#4a433a" stroke-width="10" stroke-linecap="round"/></svg>