<svg xmlns="http://www.w3.org/2000/svg" viewBox="0 0 640 420" role="img" aria-label="Mount Rainier"><rect width="640" height="420" fill="#e7f0f4"/><circle cx="519" cy="75" r="42" fill="#f3c65d"/><rect y="314" width="640" height="106" fill="#c7b189"/><text x="320" y="54" text-anchor="middle" font-family="Arial, sans-serif" font-size="28" font-weight="700" fill="#263238">Mount Rainier</text><text x="320" y="88" text-anchor="middle" font-family="Arial, sans-serif" font-size="18" fill="#52636b">Cascade Range - United States - 4,392 m</text><path d="M322 126c-24-28 24-32 0-60M342 132c-10-24 28-28 14-54" fill="none" stroke="#dfe8ea" stroke-width="8" stroke-linecap="round"/><path d="M72 326 320 112 568 326z" fill="#8d755e"/><path d="M252 170c38 26 86 26 136 0l-38 42-32-20-34 22z" fill="#f6f1e8"/><path d="M284 126c26 16 52 16 78 0" fill="none" stroke="#4a433a" stroke-width="12" stroke-linecap="round"/><path d="M120 326c52-48 94-70 126-66M402 326c38-46 82-70 132-72" fill="none" stroke="#6b5a47" stroke-width="10" stroke-linecap="round" opacity=".55"/><path d="M48 326h544" stroke="#4a433a" stroke-width="10" stroke-linecap="round"/></svg>