<svg xmlns="http://www.w3.org/2000/svg" viewBox="0 0 640 420" role="img" aria-label="Mount Whitney"><rect width="640" height="420" fill="#e7f0f4"/><circle cx="515" cy="81" r="42" fill="#f3c65d"/><rect y="314" width="640" height="106" fill="#b7c98c"/><text x="320" y="54" text-anchor="middle" font-family="Arial, sans-serif" font-size="28" font-weight="700" fill="#263238">Mount Whitney</text><text x="320" y="88" text-anchor="middle" font-family="Arial, sans-serif" font-size="18" fill="#52636b">Sierra Nevada - United States - 4,421 m</text><path d="M48 326 183 187 267 236 307 180 399 232 460 190 592 326z" fill="#7b7f6f"/><path d="M183 187 141 251 201 229 249 271 277 233zM307 180 249 274 327 236 379 288 423 238zM460 190 410 264 472 236 532 284 566 244z" fill="#f6f1e8"/><path d="M96 326c54-36 104-52 150-48M286 326c52-44 104-64 156-60M436 326c32-30 70-44 114-42" fill="none" stroke="#4a433a" stroke-width="8" stroke-linecap="round" opacity=".45"/><path d="M48 326h544" stroke="#4a433a" stroke-width="10" stroke-linecap="round"/></svg>