<svg xmlns="http://www.w3.org/2000/svg" viewBox="0 0 640 420" role="img" aria-label="Nanda Devi"><rect width="640" height="420" fill="#e7f0f4"/><circle cx="522" cy="88" r="42" fill="#f3c65d"/><rect y="314" width="640" height="106" fill="#b7c98c"/><text x="320" y="54" text-anchor="middle" font-family="Arial, sans-serif" font-size="28" font-weight="700" fill="#263238">Nanda Devi</text><text x="320" y="88" text-anchor="middle" font-family="Arial, sans-serif" font-size="18" fill="#52636b">Himalaya - India - 7,817 m</text><path d="M48 326 202 120 286 236 336 98 428 232 471 142 592 326z" fill="#6c7480"/><path d="M202 120 160 184 220 162 268 204 296 166zM336 98 278 192 356 154 408 206 452 156zM471 142 421 216 483 188 543 236 577 196z" fill="#f6f1e8"/><path d="M96 326c54-36 104-52 150-48M286 326c52-44 104-64 156-60M436 326c32-30 70-44 114-42" fill="none" stroke="#4a433a" stroke-width="8" stroke-linecap="round" opacity=".45"/><path d="M48 326h544" stroke="#4a433a" stroke-width="10" stroke-linecap="round"/></svg>