<svg xmlns="http://www.w3.org/2000/svg" viewBox="0 0 640 420" role="img" aria-label="Ngadi Chuli"><rect width="640" height="420" fill="#e7f0f4"/><circle cx="530" cy="78" r="42" fill="#f3c65d"/><rect y="314" width="640" height="106" fill="#b7c98c"/><text x="320" y="54" text-anchor="middle" font-family="Arial, sans-serif" font-size="28" font-weight="700" fill="#263238">Ngadi Chuli</text><text x="320" y="88" text-anchor="middle" font-family="Arial, sans-serif" font-size="18" fill="#52636b">Himalaya - Nepal - 7,871 m</text><path d="M48 326 186 118 270 236 314 94 406 232 475 132 592 326z" fill="#6c7480"/><path d="M186 118 144 182 204 160 252 202 280 164zM314 94 256 188 334 150 386 202 430 152zM475 132 425 206 487 178 547 226 581 186z" fill="#f6f1e8"/><path d="M96 326c54-36 104-52 150-48M286 326c52-44 104-64 156-60M436 326c32-30 70-44 114-42" fill="none" stroke="#4a433a" stroke-width="8" stroke-linecap="round" opacity=".45"/><path d="M48 326h544" stroke="#4a433a" stroke-width="10" stroke-linecap="round"/></svg>