<svg xmlns="http://www.w3.org/2000/svg" viewBox="0 0 640 420" role="img" aria-label="Puncak Jaya"><rect width="640" height="420" fill="#e7f0f4"/><circle cx="511" cy="93" r="42" fill="#f3c65d"/><rect y="314" width="640" height="106" fill="#b7c98c"/><text x="320" y="54" text-anchor="middle" font-family="Arial, sans-serif" font-size="28" font-weight="700" fill="#263238">Puncak Jaya</text><text x="320" y="88" text-anchor="middle" font-family="Arial, sans-serif" font-size="18" fill="#52636b">Sudirman Range - Indonesia - 4,884 m</text><path d="M48 326 201 191 285 236 315 172 407 232 466 206 592 326z" fill="#7b7f6f"/><path d="M201 191 159 255 219 233 267 275 295 237zM315 172 257 266 335 228 387 280 431 230zM466 206 416 280 478 252 538 300 572 260z" fill="#f6f1e8"/><path d="M96 326c54-36 104-52 150-48M286 326c52-44 104-64 156-60M436 326c32-30 70-44 114-42" fill="none" stroke="#4a433a" stroke-width="8" stroke-linecap="round" opacity=".45"/><path d="M48 326h544" stroke="#4a433a" stroke-width="10" stroke-linecap="round"/></svg>