<svg xmlns="http://www.w3.org/2000/svg" viewBox="0 0 640 420" role="img" aria-label="Shishapangma"><rect width="640" height="420" fill="#e7f0f4"/><circle cx="512" cy="82" r="42" fill="#f3c65d"/><rect y="314" width="640" height="106" fill="#b7c98c"/><text x="320" y="54" text-anchor="middle" font-family="Arial, sans-serif" font-size="28" font-weight="700" fill="#263238">Shishapangma</text><text x="320" y="88" text-anchor="middle" font-family="Arial, sans-serif" font-size="18" fill="#52636b">Himalaya - China - 8,027 m</text><path d="M48 326 196 114 280 236 314 86 406 232 441 142 592 326z" fill="#6c7480"/><path d="M196 114 154 178 214 156 262 198 290 160zM314 86 256 180 334 142 386 194 430 144zM441 142 391 216 453 188 513 236 547 196z" fill="#f6f1e8"/><path d="M96 326c54-36 104-52 150-48M286 326c52-44 104-64 156-60M436 326c32-30 70-44 114-42" fill="none" stroke="#4a433a" stroke-width="8" stroke-linecap="round" opacity=".45"/><path d="M48 326h544" stroke="#4a433a" stroke-width="10" stroke-linecap="round"/></svg>