<svg xmlns="http://www.w3.org/2000/svg" viewBox="0 0 640 480" role="img" aria-label="Stylized Cayan Tower"><rect width="640" height="480" fill="#dfeff4"/><rect y="366" width="640" height="114" fill="#78a9bd"/><circle cx="92" cy="82" r="42" fill="#f5c35b"/><path d="M252 58c58-20 118-20 176 0-34 55-47 111-39 168 8 58 36 114 83 168-66 26-134 26-204 0 42-55 62-111 59-168-4-58-28-114-75-168z" fill="#d6dde3" stroke="#385064" stroke-width="10" stroke-linejoin="round"/><path d="M286 86c39-12 78-12 117 0M272 138c47-14 93-14 139 0M269 190c50-15 101-15 151 0M284 242c44-13 88-13 132 0M306 294c34-10 68-10 102 0M276 346c51-15 102-15 153 0" stroke="#ffffff" stroke-width="9" stroke-linecap="round"/><path d="M210 402h290" stroke="#3f6f81" stroke-width="12" stroke-linecap="round"/><text x="320" y="456" text-anchor="middle" font-family="Arial, sans-serif" font-size="30" font-weight="700" fill="#243947">Cayan Tower</text></svg>
