<svg xmlns="http://www.w3.org/2000/svg" viewBox="0 0 640 480" role="img" aria-label="Stylized Dubai Creek Tower"><rect width="640" height="480" fill="#e5f4f6"/><rect y="378" width="640" height="102" fill="#79b7c9"/><circle cx="520" cy="80" r="42" fill="#f2c15f"/><path d="M317 58c18 88 26 174 25 258-.6 50-5 88-13 116h-30c-8-28-12-66-13-116-1-84 7-170 25-258z" fill="#d9e3e8" stroke="#31556a" stroke-width="9" stroke-linejoin="round"/><path d="M224 396 312 74M414 396 316 74M196 428h246" fill="none" stroke="#31556a" stroke-width="9" stroke-linecap="round"/><path d="M254 278h128M268 222h100M282 166h72" stroke="#ffffff" stroke-width="8" stroke-linecap="round"/><ellipse cx="318" cy="92" rx="44" ry="26" fill="#f7fbfc" stroke="#31556a" stroke-width="8"/><text x="320" y="462" text-anchor="middle" font-family="Arial, sans-serif" font-size="28" font-weight="700" fill="#244254">Dubai Creek Tower</text></svg>
