<svg xmlns="http://www.w3.org/2000/svg" viewBox="0 0 640 480" role="img" aria-label="Stylized Rise Tower concept"><rect width="640" height="480" fill="#e8f3f0"/><rect y="380" width="640" height="100" fill="#d8c48f"/><circle cx="528" cy="82" r="42" fill="#f2bd55"/><path d="M304 42c34 58 56 128 66 210 8 65 4 125-12 180H198c38-49 67-108 85-177 19-75 26-146 21-213z" fill="#cfd8dc" stroke="#3c5963" stroke-width="10" stroke-linejoin="round"/><path d="M305 42c-8 66-3 134 15 204 18 72 48 134 86 186" fill="none" stroke="#f6fbfb" stroke-width="18" stroke-linecap="round"/><path d="M236 388h156M254 330h126M270 272h96M284 214h70M292 156h50" stroke="#3c5963" stroke-width="8" stroke-linecap="round"/><path d="M160 432h338" stroke="#7d6b4d" stroke-width="12" stroke-linecap="round"/><text x="320" y="462" text-anchor="middle" font-family="Arial, sans-serif" font-size="30" font-weight="700" fill="#2e3d42">Rise Tower</text></svg>
