<svg xmlns="http://www.w3.org/2000/svg" viewBox="0 0 640 420" role="img" aria-label="Mackinac Bridge"><rect width="640" height="420" fill="#edf4f7"/><text x="320" y="58" text-anchor="middle" font-family="Arial, sans-serif" font-size="28" font-weight="700" fill="#263238">Mackinac Bridge</text><text x="320" y="92" text-anchor="middle" font-family="Arial, sans-serif" font-size="18" fill="#52636b">Michigan, United States - suspension</text><rect y="292" width="640" height="128" fill="#8ec6d6"/><path d="M92 278c72-98 148-146 228-146s156 48 228 146" fill="none" stroke="#5b6470" stroke-width="28" stroke-linecap="round"/><path d="M150 146v190M490 146v190" stroke="#34414a" stroke-width="24" stroke-linecap="round"/><path d="M150 154c50 46 100 66 170 66s120-20 170-66" fill="none" stroke="#34414a" stroke-width="10" stroke-linecap="round"/><path d="M88 280h464" stroke="#34414a" stroke-width="22" stroke-linecap="round"/><path d="M112 280h416" stroke="#f4d35e" stroke-width="6" stroke-dasharray="22 18"/><path d="M132 280v58M214 250v88M320 226v112M426 250v88M508 280v58" stroke="#34414a" stroke-width="14" stroke-linecap="round"/></svg>