<svg xmlns="http://www.w3.org/2000/svg" viewBox="0 0 640 420" role="img" aria-label="Oresund Bridge"><rect width="640" height="420" fill="#edf4f7"/><text x="320" y="58" text-anchor="middle" font-family="Arial, sans-serif" font-size="28" font-weight="700" fill="#263238">Oresund Bridge</text><text x="320" y="92" text-anchor="middle" font-family="Arial, sans-serif" font-size="18" fill="#52636b">Denmark-Sweden - cable stayed</text><rect y="292" width="640" height="128" fill="#8ec6d6"/><path d="M190 122v204M450 122v204" stroke="#34414a" stroke-width="24" stroke-linecap="round"/><path d="M190 138 86 280M190 156 156 280M190 174 232 280M190 194 308 280M450 138 554 280M450 156 484 280M450 174 408 280M450 194 332 280" stroke="#5b6470" stroke-width="8" stroke-linecap="round"/><path d="M88 280h464" stroke="#34414a" stroke-width="22" stroke-linecap="round"/><path d="M112 280h416" stroke="#f4d35e" stroke-width="6" stroke-dasharray="22 18"/><path d="M120 292v54M244 292v54M396 292v54M520 292v54" stroke="#34414a" stroke-width="14" stroke-linecap="round"/></svg>