<!-- Natural Earth 1:110m land, public domain: https://www.naturalearthdata.com/ -->
<svg xmlns="http://www.w3.org/2000/svg" viewBox="0 0 100 56" preserveAspectRatio="none">
  <path d="M33.45 52.9L33.37 53.06L33.29 53.2L32.71 53.16L32.09 53.18L31.74 53.07L31.74 53.06L31.59 52.97L32.21 52.98L32.81 53.01L33.02 52.88L33.16 52.77L33.45 52.9ZM5.78 52.73L5.24 52.78L4.88 52.67L4.71 52.56L4.7 52.54L4.52 52.45L4.52 52.45L4.69 52.34L5.21 52.38L5.49 52.48L5.7 52.59L5.78 52.73ZM37.46 52.28L37.8 52.42L37.92 52.6L37.95 52.74L37.96 52.9L37.53 52.99L37.08 53.07L36.56 53.15L35.98 53.21L35.32 53.19L34.95 53.09L35 52.96L35.6 52.87L35.84 52.77L36.01 52.63L36.13 52.52L36.3 52.41L36.48 52.28L36.48 52.28L36.62 52.28L37.04 52.21L37.46 52.28ZM16.33 50.87L16.69 50.92L17.02 50.86L16.86 50.97L16.6 51.05L16.22 51.03L15.94 50.92L15.94 50.92L16 50.81L16.33 50.87ZM15.12 50.86L15.55 50.98L15.38 50.97L15.02 50.94L14.64 50.85L14.64 50.85L14.84 50.79L15.12 50.86ZM22.51 50.38L22.81 50.42L23.11 50.39L23.28 50.56L23.06 50.54L22.72 50.55L22.38 50.54L22 50.56L21.72 50.5L21.57 50.37L21.57 50.37L21.75 50.31L22.1 50.35L22.51 50.38ZM30.99 50.08L31.02 50.22L30.97 50.34L30.89 50.45L30.57 50.5L30.26 50.56L29.89 50.55L30.03 50.43L29.7 50.47L29.39 50.51L29.18 50.42L29.16 50.29L29.47 50.17L29.47 50.17L29.66 50.14L29.98 50.15L30.06 49.99L30.08 49.87L30.07 49.62L30.23 49.48L30.49 49.43L30.63 49.54L30.7 49.66L30.82 49.8L30.91 49.93L30.99 50.08ZM33.72 47.96L33.6 48.03L33.39 47.98L33.16 48.01L32.97 48.08L32.77 48.16L32.64 48.25L32.6 48.37L32.61 48.49L32.74 48.59L32.55 48.67L32.29 48.69L32.14 48.79L31.98 48.89L31.8 49.03L31.76 49.14L31.86 49.27L32 49.37L32.23 49.44L32.45 49.54L32.56 49.66L32.62 49.78L32.7 49.9L32.83 50L32.91 50.12L32.95 50.4L33.03 50.52L33.05 50.64L33.14 50.76L33.1 50.93L32.95 51.06L32.79 51.16L32.42 51.2L32.29 51.31L32.12 51.42L31.71 51.53L31.34 51.58L30.99 51.65L30.61 51.71L30.39 51.84L29.94 51.85L29.45 51.84L29.01 51.87L28.54 51.87L28.63 51.99L29.06 52.04L29.37 52.13L29.54 52.24L29.23 52.34L28.75 52.31L28.35 52.38L28.34 52.51L28.33 52.63L28.65 52.74L28.71 52.85L29.07 52.97L29.65 53.02L30.15 53.1L30.55 53.2L31.06 53.3L31.75 53.35L32.43 53.43L32.9 53.52L33.42 53.63L33.69 53.77L33.83 53.89L34.16 53.78L34.62 53.69L35.11 53.59L35.68 53.51L36.18 53.43L36.87 53.42L37.55 53.46L38.11 53.54L38.29 53.4L38.67 53.31L39.38 53.3L39.93 53.24L40.45 53.17L41.02 53.13L41.64 53.07L42.07 52.99L41.87 52.88L41.75 52.77L41.75 52.66L41.22 52.67L40.64 52.72L40.1 52.72L40.02 52.6L40.06 52.37L40.19 52.31L40.58 52.23L41.05 52.16L41.39 52.07L41.73 51.98L41.98 51.85L42.36 51.8L42.73 51.76L42.92 51.73L43.35 51.72L43.76 51.68L44.1 51.62L44.44 51.54L44.75 51.47L45.13 51.37L45.38 51.27L45.64 51.18L45.72 51.06L45.43 50.98L45.52 50.85L45.71 50.76L46 50.7L46.3 50.62L46.59 50.53L46.8 50.4L46.94 50.26L47.14 50.17L47.47 50.19L47.61 50.29L47.94 50.31L47.95 50.19L48.09 50.07L48.39 50.1L48.46 50.21L48.79 50.23L49.15 50.18L49.5 50.14L49.82 50.16L49.94 50.29L50.24 50.18L50.52 50.13L50.84 50.09L51.15 50.04L51.43 49.97L51.74 49.92L51.98 49.85L52.15 49.74L52.36 49.82L52.65 49.78L52.85 49.93L53 50.04L53.32 49.98L53.45 49.85L53.73 49.77L54.09 49.79L54.2 49.9L54.43 49.79L54.73 49.75L55.06 49.74L55.35 49.74L55.66 49.78L55.96 49.8L56.09 49.9L56.27 49.99L56.57 49.94L56.9 49.93L57.22 49.93L57.53 49.92L57.8 49.88L58.1 49.84L58.34 49.76L58.6 49.7L58.89 49.67L59.1 49.59L59.25 49.42L59.41 49.31L59.7 49.36L59.81 49.47L60.05 49.54L60.33 49.52L60.53 49.63L60.74 49.71L61.02 49.64L61.12 49.5L61.37 49.45L61.66 49.34L61.93 49.3L62.25 49.24L62.47 49.17L62.7 49.1L62.92 49.03L63.18 49.07L63.43 48.96L63.61 48.87L63.87 48.88L64.1 48.81L64.15 48.7L64.39 48.61L64.62 48.55L64.89 48.5L65.15 48.48L65.39 48.5L65.65 48.53L65.88 48.61L65.9 48.74L66.15 48.85L66.32 48.93L66.65 48.97L66.83 49.06L67.06 49.14L67.33 49.16L67.55 49.1L67.79 48.97L68.05 49.04L68.33 49.07L68.59 49.11L68.86 49.14L69.14 49.14L69.36 49.46L69.35 49.54L69.32 49.68L69.05 49.76L68.84 49.87L68.87 49.99L69.19 49.99L69.15 50.11L69.01 50.23L68.87 50.35L69.09 50.45L69.41 50.48L69.73 50.43L69.88 50.31L69.97 50.19L70.13 50.09L70.3 50L70.37 49.89L70.52 49.74L70.69 49.71L71.01 49.7L71.29 49.66L71.57 49.61L71.7 49.49L71.79 49.37L71.98 49.26L72.25 49.18L72.48 49.12L72.63 49.01L72.79 48.96L72.99 48.91L73.27 48.94L73.52 48.91L73.79 48.87L74.1 48.89L74.3 48.81L74.44 48.6L74.54 48.68L74.67 48.83L74.91 48.89L75.18 48.92L75.44 48.88L75.72 48.9L75.99 48.91L76.16 48.88L76.39 48.9L76.61 48.96L76.86 48.92L77.16 48.92L77.41 48.88L77.7 48.92L77.88 48.82L78.03 48.71L78.22 48.63L78.56 48.4L78.74 48.44L78.96 48.53L79.14 48.64L79.49 48.82L79.77 48.83L80.02 48.83L80.32 48.79L80.62 48.75L80.85 48.67L81.04 48.57L81.35 48.56L81.56 48.5L81.77 48.56L81.92 48.65L82.11 48.75L82.42 48.74L82.61 48.82L82.94 48.9L83.29 48.93L83.58 48.9L83.79 48.81L83.98 48.71L84.23 48.68L84.48 48.73L84.77 48.76L85.03 48.71L85.28 48.71L85.52 48.74L85.78 48.77L86.03 48.71L86.33 48.67L86.61 48.65L86.93 48.65L87.18 48.62L87.43 48.6L87.51 48.45L87.52 48.32L87.69 48.4L87.74 48.54L87.84 48.67L87.95 48.78L88.18 48.83L88.5 48.81L88.86 48.81L89.11 48.79L89.48 48.79L89.74 48.78L90.1 48.79L90.41 48.82L90.61 48.92L90.56 49.03L90.74 49.12L91.03 49.2L91.34 49.28L91.7 49.33L92.08 49.38L92.36 49.43L92.68 49.43L92.86 49.33L93.1 49.42L93.31 49.51L93.56 49.59L93.9 49.62L94.22 49.65L94.35 49.78L94.67 49.85L94.88 49.96L95.19 50.01L95.51 50L95.81 50.02L96.14 50.01L96.47 50.04L96.78 50.08L97.07 50.15L97.36 50.21L97.56 50.31L97.52 50.43L97.38 50.54L97.25 50.68L97.15 50.79L97.02 50.92L96.66 50.96L96.5 51.07L96.14 51.14L96.01 51.26L95.82 51.38L95.62 51.48L95.51 51.6L95.44 51.72L95.41 51.86L95.41 51.98L95.57 52.1L95.63 52.21L95.76 52.32L96.28 52.37L96.39 52.5L95.89 52.55L95.46 52.62L94.94 52.63L94.7 52.81L94.65 52.95L94.53 53.07L94.39 53.18L94.76 53.29L94.9 53.41L95.14 53.53L95.47 53.63L95.86 53.73L96.28 53.83L96.92 53.93L97.06 54.08L97.86 54.15L97.91 54.17L98.12 54.26L98.88 54.18L99.52 54.28L100 54.36L100 56L0 56L0 54.36L0.02 54.36L0.26 54.18L0.76 54.27L0.79 54.26L0.87 54.24L0.97 54.21L1.05 54.18L1.09 54.16L1.13 54.16L1.16 54.17L1.56 54.3L1.91 54.17L1.98 54.15L2.79 54.1L3.06 54.17L3.19 54.21L3.6 54.31L4.39 54.39L5.02 54.49L6.09 54.56L6.89 54.48L8.07 54.54L8.74 54.63L9.48 54.54L10.25 54.46L10.31 54.31L9.21 54.3L8.32 54.23L8.08 54.1L7.34 54.04L7.39 53.9L7.49 53.77L7.59 53.65L7.54 53.52L7.08 53.44L6.86 53.33L6.43 53.23L7.11 53.25L7.75 53.2L8.15 53.3L8.65 53.21L9.11 53.1L9.33 52.99L9.23 52.87L8.87 52.78L8.46 52.69L7.89 52.67L7.39 52.63L6.85 52.6L6.67 52.48L6.31 52.38L6.1 52.27L6.01 51.92L6.15 51.95L6.4 52.05L6.85 52.02L7.29 51.98L7.52 52.11L7.96 52.08L8.33 52.01L8.68 51.93L9 51.82L9.42 51.79L9.4 51.68L9.31 51.56L9.39 51.45L9.75 51.4L9.91 51.5L10.33 51.44L10.66 51.36L11.05 51.35L11.43 51.32L11.8 51.25L12.1 51.18L12.44 51.12L12.66 51.13L12.85 51.16L13.26 51.12L13.63 51.17L14.01 51.17L14.38 51.12L14.75 51.15L15.17 51.18L15.55 51.17L15.95 51.18L16.37 51.18L16.75 51.17L17.03 51.08L17.37 51.03L17.72 51.1L18.05 51.04L18.35 50.93L18.53 51.03L18.63 51.14L18.81 51.24L19.09 51.15L19.43 51.27L19.8 51.31L20.12 51.39L20.51 51.37L20.87 51.32L21.29 51.33L21.66 51.37L22.04 51.43L22.19 51.29L22.01 51.19L21.87 51.08L21.52 51.06L21.36 50.94L21.3 50.82L21.2 50.59L21.41 50.63L21.78 50.65L22.14 50.63L22.46 50.68L22.74 50.77L22.86 50.88L23.24 50.9L23.6 50.86L23.98 50.8L24.32 50.76L24.61 50.84L24.98 50.81L25.21 50.57L25.44 50.71L25.76 50.77L26.11 50.74L26.34 50.86L26.7 50.87L27.04 50.91L27.37 50.98L27.59 50.86L27.7 50.75L27.97 50.87L28.35 50.84L28.64 50.91L28.83 51.01L29.2 50.98L29.49 50.92L29.77 50.84L30.11 50.79L30.5 50.76L30.85 50.71L31.12 50.65L31.29 50.55L31.35 50.42L31.32 50.29L31.23 50.17L31.13 50.04L31.05 49.92L30.98 49.81L30.96 49.69L30.99 49.57L31.12 49.45L31.23 49.32L31.27 49.2L31.22 49.07L31.18 48.95L31.32 48.81L31.47 48.71L31.65 48.6L31.84 48.5L32.06 48.41L32.17 48.28L32.33 48.19L32.5 48.11L32.77 48.09L32.94 48L33.14 47.93L33.36 47.9L33.57 47.82L33.72 47.72L33.94 47.68L34.1 47.76L34 47.87L33.72 47.96ZM31.18 44.75L31.54 44.94L31.93 45.02L31.81 45.17L31.54 45.19L31.4 45.08L31.31 45.2L31.07 45.3L30.77 45.27L30.57 45.17L30.28 45.13L29.93 44.95L29.64 44.79L29.26 44.44L29.49 44.5L29.88 44.71L30.25 44.82L30.39 44.68L30.48 44.47L30.74 44.34L30.93 44.38L30.93 44.38L31.04 44.52L31.18 44.75ZM33.74 43.9L33.96 44.04L33.88 44.15L33.5 44.24L33.38 44.13L33.14 44.27L33 44.13L33.33 43.94L33.57 44.02L33.74 43.9ZM69.52 43.47L69.1 43.49L69.09 43.32L69.13 43.19L69.15 43.13L69.33 43.23L69.59 43.26L69.6 43.32L69.52 43.47ZM90.39 40.69L90.66 40.8L90.81 40.76L91.02 40.7L91.19 40.72L91.21 41.09L91.12 41.19L91.09 41.44L90.99 41.36L90.8 41.58L90.74 41.56L90.57 41.55L90.4 41.28L90.36 41.08L90.2 40.81L90.21 40.66L90.39 40.69ZM98.06 40.73L98.12 40.86L98.32 40.73L98.4 40.86L98.4 41L98.3 41.14L98.12 41.37L97.98 41.49L98.08 41.64L97.86 41.65L97.63 41.76L97.55 41.97L97.39 42.28L97.18 42.42L97.04 42.51L96.78 42.5L96.6 42.4L96.3 42.38L96.25 42.27L96.4 42.03L96.75 41.73L96.93 41.67L97.13 41.55L97.37 41.39L97.53 41.23L97.66 40.99L97.76 40.92L97.8 40.74L98 40.6L98.06 40.73ZM98.5 39.25L98.7 39.58L98.71 39.36L98.84 39.45L98.88 39.68L99.1 39.79L99.29 39.81L99.45 39.69L99.59 39.73L99.52 40L99.44 40.19L99.22 40.18L99.15 40.27L99.18 40.41L99.13 40.46L99.03 40.63L98.89 40.85L98.68 40.97L98.63 40.89L98.51 40.84L98.67 40.59L98.58 40.42L98.28 40.29L98.29 40.18L98.49 40.07L98.54 39.83L98.53 39.63L98.41 39.42L98.42 39.37L98.29 39.24L98.07 38.96L97.95 38.74L98.06 38.72L98.21 38.89L98.42 38.97L98.5 39.25ZM96.42 34.89L96.32 34.97L96.16 34.88L95.97 34.74L95.79 34.58L95.6 34.36L95.56 34.26L95.68 34.26L95.84 34.37L95.96 34.47L96.05 34.56L96.28 34.75L96.42 34.89ZM99.55 33.39L99.64 33.48L99.6 33.65L99.43 33.69L99.27 33.65L99.25 33.51L99.35 33.41L99.48 33.45L99.55 33.39ZM99.82 33.23L99.65 33.29L99.61 33.18L99.75 33.11L99.84 33.1L100 33L100 33.15L99.82 33.23ZM0.02 33.13L0 33.15L0 33L0.06 32.98L0.02 33.13ZM96.62 33.12L96.53 33.16L96.44 33.03L96.45 32.94L96.62 33.12ZM96.42 32.65L96.46 32.9L96.39 32.86L96.33 32.87L96.29 32.79L96.29 32.55L96.42 32.65ZM63.9 32.22L63.95 32.59L64.02 32.74L63.99 32.89L63.94 32.98L63.85 32.8L63.8 32.89L63.85 33.12L63.83 33.25L63.75 33.32L63.73 33.59L63.62 33.95L63.49 34.38L63.31 34.97L63.21 35.4L63.08 35.76L62.86 35.83L62.61 35.96L62.45 35.89L62.23 35.77L62.16 35.61L62.14 35.33L62.04 35.09L62.02 34.86L62.06 34.64L62.19 34.58L62.19 34.48L62.33 34.24L62.35 34.05L62.29 33.9L62.23 33.7L62.21 33.42L62.31 33.24L62.35 33.05L62.48 33.03L62.64 32.97L62.74 32.91L62.86 32.91L63.02 32.73L63.25 32.54L63.33 32.38L63.3 32.25L63.41 32.29L63.57 32.07L63.57 31.89L63.67 31.75L63.76 31.88L63.84 32.01L63.9 32.22ZM89.88 32.28L89.98 32.53L90.16 32.41L90.25 32.54L90.38 32.66L90.35 32.8L90.41 33.07L90.45 33.22L90.52 33.26L90.6 33.53L90.57 33.69L90.66 33.9L90.96 34.06L91.16 34.21L91.35 34.34L91.31 34.42L91.47 34.61L91.58 34.95L91.69 34.88L91.8 35.02L91.87 34.97L91.92 35.3L92.11 35.49L92.24 35.61L92.46 35.86L92.54 36.11L92.54 36.29L92.53 36.48L92.66 36.75L92.64 37.02L92.59 37.16L92.52 37.44L92.52 37.62L92.47 37.84L92.35 38.13L92.14 38.28L92.04 38.52L91.95 38.67L91.87 38.94L91.76 39.1L91.69 39.33L91.65 39.55L91.67 39.64L91.51 39.75L91.2 39.76L90.94 39.89L90.81 40.01L90.64 40.14L90.41 40.01L90.24 39.95L90.29 39.79L90.13 39.85L89.89 40.07L89.65 39.99L89.49 39.94L89.34 39.92L89.07 39.83L88.89 39.64L88.84 39.4L88.77 39.24L88.63 39.12L88.37 39.08L88.46 38.93L88.39 38.7L88.26 38.91L88.01 38.97L88.15 38.8L88.2 38.62L88.3 38.47L88.28 38.24L88.05 38.5L87.88 38.61L87.77 38.85L87.56 38.73L87.57 38.56L87.39 38.34L87.25 38.22L87.3 38.15L86.94 37.96L86.75 37.95L86.48 37.8L85.98 37.83L85.62 37.94L85.31 38.04L85.04 38.02L84.75 38.18L84.51 38.25L84.45 38.42L84.35 38.54L84.11 38.55L83.94 38.58L83.69 38.52L83.49 38.56L83.3 38.57L83.14 38.74L83.06 38.72L82.92 38.81L82.78 38.91L82.58 38.9L82.4 38.9L82.1 38.7L81.95 38.64L81.96 38.46L82.1 38.42L82.14 38.35L82.13 38.24L82.17 38.02L82.14 37.83L81.99 37.52L81.94 37.34L81.96 37.17L81.84 36.96L81.84 36.87L81.71 36.75L81.68 36.5L81.52 36.26L81.48 36.13L81.61 36.26L81.51 35.97L81.65 36.06L81.73 36.18L81.73 36.02L81.59 35.78L81.56 35.68L81.5 35.59L81.53 35.41L81.59 35.33L81.62 35.17L81.59 34.99L81.71 34.77L81.73 35.01L81.85 34.79L82.07 34.69L82.21 34.55L82.42 34.44L82.55 34.42L82.62 34.45L82.84 34.34L83.01 34.3L83.05 34.24L83.13 34.21L83.28 34.21L83.57 34.12L83.72 33.99L83.79 33.82L83.96 33.66L83.97 33.54L83.98 33.37L84.17 33.1L84.29 33.37L84.41 33.31L84.31 33.16L84.39 33.01L84.52 33.08L84.55 32.84L84.7 32.69L84.77 32.57L84.91 32.51L84.91 32.43L85.03 32.46L85.04 32.39L85.16 32.34L85.3 32.3L85.5 32.44L85.66 32.63L85.83 32.63L86.01 32.66L85.95 32.49L86.08 32.24L86.21 32.16L86.16 32.08L86.28 31.9L86.45 31.79L86.59 31.83L86.83 31.77L86.82 31.61L86.62 31.51L86.77 31.46L86.95 31.54L87.1 31.67L87.33 31.75L87.41 31.72L87.58 31.81L87.75 31.72L87.85 31.75L87.91 31.69L88.04 31.84L87.97 32.01L87.86 32.14L87.77 32.15L87.8 32.27L87.72 32.43L87.62 32.58L87.64 32.67L87.86 32.84L88.07 32.94L88.22 33.04L88.42 33.23L88.5 33.23L88.64 33.31L88.68 33.4L88.95 33.51L89.13 33.4L89.19 33.24L89.24 33.1L89.28 32.93L89.36 32.68L89.32 32.53L89.34 32.44L89.31 32.26L89.35 32.03L89.4 31.96L89.36 31.86L89.42 31.7L89.48 31.52L89.48 31.44L89.59 31.32L89.67 31.47L89.69 31.67L89.75 31.7L89.77 31.83L89.87 31.99L89.89 32.17L89.88 32.28ZM95.03 31.26L95.11 31.37L94.92 31.37L94.81 31.17L94.98 31.25L95.03 31.26ZM83.53 31.19L83.42 31.19L83.05 30.97L83.31 30.91L83.45 31.01L83.55 31.1L83.53 31.19ZM94.68 31.07L94.57 31.08L94.4 31.05L94.34 31L94.36 30.88L94.55 30.92L94.64 30.99L94.68 31.07ZM94.91 30.99L94.87 31.04L94.66 30.77L94.61 30.59L94.7 30.59L94.8 30.84L94.91 30.99ZM84.57 31.15L84.33 31.22L84.29 31.19L84.32 31.08L84.44 30.89L84.71 30.77L84.75 30.69L84.99 30.62L85.18 30.61L85.27 30.57L85.37 30.61L85.27 30.7L84.98 30.83L84.75 30.92L84.57 31.15ZM82.75 30.52L82.85 30.6L83.02 30.58L83.09 30.71L82.77 30.77L82.58 30.81L82.43 30.81L82.52 30.63L82.68 30.63L82.75 30.52ZM84.14 30.52L84.1 30.69L83.68 30.78L83.31 30.74L83.31 30.63L83.53 30.56L83.71 30.66L83.89 30.63L84.14 30.52ZM94.41 30.59L94.42 30.66L94.2 30.52L94.05 30.41L93.95 30.31L93.99 30.28L94.12 30.35L94.34 30.5L94.41 30.59ZM93.76 30.29L93.71 30.3L93.58 30.23L93.47 30.1L93.48 30.05L93.65 30.18L93.76 30.29ZM80.17 30.11L80.71 30.14L80.77 30.01L81.28 30.16L81.38 30.36L81.8 30.42L82.14 30.6L81.82 30.72L81.52 30.6L81.27 30.61L80.98 30.58L80.72 30.53L80.4 30.41L80.19 30.38L80.08 30.42L79.57 30.29L79.52 30.15L79.27 30.13L79.46 29.83L79.8 29.85L80.02 29.97L80.14 30L80.17 30.11ZM87.42 29.93L87.28 30.15L87.25 29.91L87.3 29.8L87.36 29.69L87.42 29.79L87.42 29.93ZM93.3 30.12L93.22 30.15L93.1 30.03L92.98 29.84L92.92 29.6L92.96 29.57L92.99 29.66L93.07 29.73L93.21 29.93L93.34 30.03L93.3 30.12ZM92.22 29.7L92.07 29.73L92.03 29.82L91.88 29.89L91.73 29.97L91.59 29.97L91.36 29.87L91.2 29.79L91.22 29.69L91.47 29.74L91.62 29.71L91.67 29.56L91.71 29.56L91.73 29.72L91.89 29.7L91.97 29.59L92.12 29.48L92.09 29.3L92.26 29.29L92.32 29.34L92.31 29.51L92.22 29.7ZM85.35 29.08L85.24 29.18L85.05 29.12L85 28.99L85.28 28.97L85.35 29.08ZM86.24 28.96L86.34 29.2L86.11 29.07L85.88 29.05L85.72 29.07L85.53 29.06L85.59 28.88L85.94 28.87L86.24 28.96ZM92.54 29.4L92.45 29.48L92.4 29.3L92.34 29.18L92.21 29.08L92.05 28.94L91.85 28.85L91.93 28.78L92.08 28.86L92.17 28.93L92.29 29.01L92.4 29.14L92.51 29.24L92.54 29.4ZM87.26 28.36L87.34 28.86L87.63 29.05L87.86 28.72L88.18 28.53L88.42 28.53L88.66 28.64L88.87 28.75L89.17 28.81L89.65 29.02L90.16 29.2L90.35 29.36L90.51 29.52L90.55 29.7L91.01 29.89L91.08 30.06L90.83 30.09L90.89 30.3L91.13 30.5L91.32 30.83L91.47 30.82L91.46 30.96L91.68 31.01L91.59 31.07L91.89 31.2L91.86 31.29L91.67 31.31L91.61 31.23L91.37 31.2L91.09 31.15L90.87 30.95L90.71 30.78L90.57 30.51L90.21 30.37L89.97 30.46L89.8 30.57L89.84 30.79L89.62 30.9L89.46 30.85L89.18 30.84L88.93 30.58L88.65 30.52L88.58 30.61L88.23 30.62L88.34 30.36L88.52 30.28L88.45 29.94L88.31 29.68L87.77 29.41L87.55 29.39L87.13 29.1L87.05 29.25L86.94 29.28L86.88 29.17L86.88 29.03L86.66 28.88L86.96 28.77L87.16 28.77L87.14 28.69L86.73 28.69L86.62 28.5L86.37 28.45L86.26 28.29L86.63 28.22L86.77 28.11L87.22 28.24L87.26 28.36ZM84.79 27.56L84.57 27.87L84.36 27.93L84.09 27.87L83.63 27.88L83.38 27.93L83.34 28.16L83.59 28.44L83.74 28.3L84.26 28.19L84.24 28.33L84.12 28.29L84 28.47L83.75 28.59L84.02 28.99L83.96 29.1L84.21 29.46L84.21 29.66L84.06 29.75L83.95 29.64L84.09 29.39L83.82 29.51L83.75 29.42L83.78 29.3L83.58 29.12L83.6 28.82L83.42 28.91L83.44 29.27L83.45 29.72L83.28 29.77L83.16 29.67L83.24 29.39L83.19 29.09L83.08 29.08L82.99 28.87L83.11 28.67L83.15 28.42L83.28 27.95L83.34 27.82L83.58 27.59L83.8 27.68L84.15 27.73L84.47 27.71L84.74 27.49L84.79 27.56ZM85.75 27.65L85.73 27.92L85.59 27.89L85.55 28.08L85.66 28.24L85.58 28.28L85.47 28.08L85.39 27.69L85.44 27.44L85.54 27.32L85.56 27.49L85.72 27.52L85.75 27.65ZM79.39 29.82L79.09 29.83L78.85 29.57L78.5 29.31L78.38 29.12L78.17 28.87L78.03 28.64L77.82 28.2L77.57 27.94L77.49 27.68L77.39 27.43L77.14 27.24L76.99 26.97L76.78 26.8L76.49 26.45L76.47 26.3L76.65 26.31L77.08 26.37L77.32 26.67L77.54 26.88L77.69 27.01L77.96 27.35L78.24 27.35L78.47 27.56L78.63 27.83L78.84 27.97L78.73 28.22L78.89 28.33L78.99 28.34L79.04 28.55L79.14 28.73L79.34 28.76L79.47 28.95L79.4 29.34L79.39 29.82ZM82.74 27.43L83.05 27.72L82.73 27.76L82.63 27.97L82.64 28.25L82.38 28.46L82.37 28.77L82.26 29.25L82.22 29.14L81.91 29.28L81.8 29.09L81.6 29.07L81.46 28.97L81.13 29.08L81.03 28.93L80.85 28.95L80.62 28.91L80.58 28.5L80.44 28.41L80.3 28.14L80.26 27.87L80.3 27.58L80.46 27.38L80.67 27.48L80.88 27.42L80.94 27.16L81.05 27.1L81.39 27.03L81.59 26.79L81.72 26.59L81.83 26.48L82.07 26.31L82.28 26.09L82.42 25.85L82.54 25.84L82.68 26L82.69 26.14L82.87 26.22L83.11 26.32L83.09 26.44L82.9 26.45L82.95 26.61L82.75 26.71L82.59 26.99L82.79 27.29L82.74 27.43ZM85.1 25.38L85.13 25.59L85.15 25.76L85.05 26.05L84.95 25.73L84.82 25.89L84.91 26.12L84.83 26.26L84.51 26.08L84.43 25.86L84.51 25.71L84.34 25.56L84.25 25.69L84.12 25.68L83.91 25.85L83.87 25.76L83.98 25.5L84.15 25.41L84.3 25.3L84.4 25.44L84.61 25.35L84.66 25.21L84.85 25.2L84.84 24.96L85.06 25.11L85.09 25.27L85.1 25.38ZM72.56 26.07L72.32 26.14L72.19 25.9L72.14 25.45L72.26 24.94L72.46 25.12L72.58 25.34L72.72 25.66L72.68 25.98L72.56 26.07ZM33.07 24.85L32.84 24.89L32.79 24.86L32.87 24.78L32.87 24.65L33.03 24.61L33.08 24.62L33.07 24.85ZM84.44 24.8L84.34 24.9L84.25 25.1L84.17 25.19L83.99 24.98L84.05 24.89L84.12 24.81L84.15 24.61L84.31 24.6L84.26 24.81L84.47 24.51L84.44 24.8ZM82.92 25.1L82.55 25.4L82.68 25.18L82.89 24.99L83.05 24.77L83.2 24.46L83.25 24.72L83.06 24.89L82.92 25.1ZM83.86 24.3L84.02 24.4L84.2 24.4L84.19 24.53L84.07 24.66L83.89 24.75L83.88 24.61L83.9 24.45L83.86 24.3ZM84.86 24.22L84.94 24.56L84.73 24.48L84.73 24.59L84.8 24.78L84.67 24.85L84.66 24.63L84.57 24.61L84.53 24.42L84.69 24.45L84.69 24.33L84.52 24.09L84.79 24.1L84.86 24.22ZM83.76 23.93L83.68 24.2L83.56 24.05L83.42 23.81L83.66 23.82L83.76 23.93ZM83.7 22.24L83.87 22.33L83.96 22.25L83.98 22.33L83.94 22.46L84.03 22.68L83.96 22.94L83.8 23.04L83.75 23.29L83.81 23.54L83.96 23.58L84.08 23.54L84.43 23.71L84.4 23.88L84.49 23.96L84.47 24.1L84.25 23.95L84.15 23.78L84.08 23.9L83.9 23.71L83.65 23.76L83.51 23.69L83.52 23.56L83.61 23.48L83.53 23.41L83.49 23.52L83.35 23.34L83.31 23.21L83.3 22.91L83.41 23.01L83.44 22.52L83.53 22.24L83.7 22.24ZM31.78 22.33L31.71 22.41L31.5 22.41L31.34 22.42L31.32 22.28L31.36 22.24L31.59 22.24L31.73 22.27L31.78 22.33ZM28.64 22.44L28.55 22.49L28.4 22.44L28.24 22.33L28.27 22.26L28.39 22.24L28.45 22.25L28.64 22.28L28.79 22.35L28.83 22.44L28.64 22.44ZM29.84 21.82L30.08 21.87L30.11 21.81L30.33 21.82L30.5 21.9L30.57 21.89L30.62 22L30.77 21.99L30.76 22.08L30.89 22.1L31.02 22.21L30.92 22.34L30.79 22.27L30.66 22.28L30.57 22.27L30.52 22.32L30.41 22.34L30.37 22.27L30.28 22.31L30.17 22.52L30.1 22.48L30.08 22.39L29.9 22.33L29.77 22.35L29.6 22.33L29.47 22.39L29.32 22.29L29.34 22.19L29.6 22.24L29.81 22.26L29.91 22.19L29.78 22.06L29.78 21.94L29.61 21.89L29.67 21.8L29.84 21.82ZM80.65 22.19L80.41 22.34L80.18 22.24L80.17 21.97L80.31 21.83L80.61 21.75L80.77 21.75L80.84 21.87L80.71 22.01L80.65 22.19ZM6.79 22.06L6.75 22.11L6.68 22.07L6.69 21.98L6.65 21.87L6.66 21.84L6.71 21.78L6.69 21.72L6.71 21.69L6.73 21.7L6.83 21.75L6.88 21.78L6.93 21.82L7 21.93L6.99 21.95L6.88 22.01L6.79 22.06ZM6.64 21.58L6.55 21.6L6.5 21.53L6.47 21.51L6.47 21.49L6.5 21.46L6.6 21.49L6.67 21.54L6.64 21.58ZM6.46 21.41L6.45 21.45L6.3 21.44L6.32 21.4L6.46 21.41ZM6.21 21.37L6.19 21.38L6.17 21.38L6.08 21.37L6.04 21.3L6.03 21.29L6.1 21.24L6.13 21.26L6.21 21.37ZM5.74 21.16L5.7 21.19L5.61 21.14L5.63 21.11L5.67 21.08L5.73 21.09L5.74 21.16ZM27.87 20.92L27.98 21.03L28.24 21L28.34 21.07L28.57 21.26L28.74 21.4L28.83 21.4L29 21.46L28.98 21.55L29.19 21.56L29.39 21.69L29.36 21.76L29.18 21.8L28.99 21.82L28.8 21.79L28.4 21.82L28.59 21.65L28.47 21.57L28.3 21.55L28.2 21.46L28.13 21.28L27.98 21.29L27.72 21.21L27.63 21.14L27.27 21.1L27.18 21.04L27.28 20.96L27.01 20.94L26.81 21.1L26.69 21.11L26.65 21.18L26.51 21.22L26.4 21.19L26.54 21.09L26.6 20.98L26.73 20.91L26.87 20.85L27.08 20.82L27.15 20.79L27.39 20.81L27.61 20.81L27.87 20.92ZM28.46 20.61L28.39 20.62L28.32 20.44L28.22 20.35L28.28 20.16L28.36 20.17L28.46 20.43L28.46 20.61ZM83.66 20.91L83.54 21.16L83.39 20.9L83.36 20.67L83.53 20.37L83.75 20.13L83.88 20.22L83.83 20.41L83.66 20.91ZM28.38 19.73L28.08 19.78L28.06 19.67L28.19 19.64L28.38 19.65L28.38 19.73ZM28.61 19.73L28.56 19.95L28.51 19.91L28.52 19.75L28.39 19.62L28.39 19.59L28.61 19.73ZM87.4 17.38L87.44 17.48L87.28 17.67L87.16 17.57L87.02 17.64L86.95 17.83L86.77 17.74L86.77 17.59L86.92 17.4L87.08 17.44L87.2 17.31L87.4 17.38ZM59.6 16.9L59.42 17.03L59.44 17.09L59.45 17.12L59.16 17.24L59.03 17.2L58.96 17.08L59.09 17.07L59.11 17.07L59.15 16.99L59.35 16.99L59.6 16.9ZM56.58 16.89L56.74 17L56.95 16.98L57.16 17L57.15 17.06L57.3 17.02L57.27 17.11L56.87 17.14L56.87 17.08L56.53 17.02L56.58 16.89ZM54.31 16.11L54.21 16.35L54.25 16.45L54.19 16.61L53.98 16.49L53.84 16.46L53.45 16.3L53.49 16.14L53.82 16.17L54.1 16.13L54.31 16.11ZM52.56 15.18L52.72 15.4L52.69 15.81L52.56 15.79L52.45 15.9L52.34 15.81L52.33 15.44L52.27 15.26L52.42 15.28L52.56 15.18ZM89.16 16.44L89.06 16.69L89.1 16.85L88.96 17.07L88.6 17.21L88.12 17.23L87.72 17.59L87.53 17.47L87.52 17.24L87.04 17.31L86.71 17.45L86.39 17.46L86.67 17.69L86.48 18.22L86.3 18.35L86.17 18.23L86.24 17.95L86.06 17.85L85.95 17.64L86.21 17.55L86.36 17.35L86.63 17.19L86.84 16.98L87.39 16.88L87.69 16.95L87.98 16.39L88.16 16.54L88.57 16.23L88.73 16.11L88.9 15.73L88.86 15.38L88.97 15.18L89.27 15.13L89.42 15.56L89.41 15.81L89.16 16.12L89.16 16.44ZM52.66 14.89L52.56 15.13L52.44 15.06L52.37 14.85L52.43 14.74L52.61 14.62L52.66 14.89ZM89.98 14.26L90.17 14.32L90.37 14.19L90.43 14.54L90.02 14.63L89.77 14.93L89.34 14.72L89.19 15.06L88.88 15.07L88.84 14.76L88.98 14.52L89.27 14.5L89.35 14.07L89.44 13.83L89.76 14.15L89.98 14.26ZM32.32 13.52L32.52 13.56L32.77 13.55L32.64 13.68L32.53 13.7L32.18 13.57L32.11 13.46L32.22 13.37L32.32 13.52ZM32.83 12.72L32.7 12.73L32.34 12.63L32.08 12.48L32.17 12.46L32.54 12.54L32.82 12.67L32.83 12.72ZM15.69 12.91L15.55 12.95L15.1 12.81L15.01 12.7L14.76 12.59L14.71 12.5L14.43 12.45L14.32 12.28L14.34 12.2L14.64 12.27L14.81 12.32L15.07 12.35L15.16 12.46L15.3 12.61L15.58 12.74L15.69 12.91ZM34.41 12.23L34.22 12.5L34.4 12.4L34.59 12.46L34.49 12.57L34.74 12.66L34.87 12.58L35.15 12.68L35.06 12.91L35.25 12.85L35.29 13.02L35.38 13.21L35.26 13.48L35.13 13.5L34.95 13.44L35.01 13.18L34.93 13.14L34.61 13.41L34.45 13.4L34.64 13.26L34.37 13.18L34.08 13.2L33.54 13.19L33.49 13.1L33.67 12.99L33.55 12.9L33.78 12.72L34.07 12.22L34.24 12.04L34.48 11.94L34.61 11.95L34.56 12.03L34.41 12.23ZM13.14 11.19L13.14 11.19L13.14 11.19L13.14 11.19L13.4 11.16L13.32 11.52L13.56 11.77L13.45 11.77L13.28 11.62L13.18 11.48L13.04 11.38L12.99 11.25L13.01 11.15L13.14 11.19ZM89.9 12.21L90.18 12.76L89.77 12.66L89.6 13.11L89.87 13.43L89.86 13.65L89.65 13.46L89.47 13.7L89.42 13.44L89.45 13.14L89.42 12.8L89.48 12.56L89.49 12.15L89.33 11.84L89.36 11.42L89.61 11.27L89.5 11.13L89.63 11.09L89.7 11.29L89.79 11.59L89.79 11.9L89.9 12.21ZM48.11 11.74L47.62 11.93L47.23 11.88L47.45 11.55L47.31 11.24L47.69 10.99L47.9 10.85L48.13 10.84L48.43 11.03L48.28 11.24L48.32 11.46L48.11 11.74ZM53.53 10.7L53.36 10.95L53.07 10.78L53.03 10.65L53.44 10.54L53.53 10.7ZM7.5 10.23L7.22 10.35L7.08 10.27L7.04 10.12L7.29 10.01L7.44 9.97L7.62 9.99L7.74 10.08L7.5 10.23ZM49.17 9.76L48.87 10.09L49.15 10.05L49.46 10.05L49.38 10.31L49.13 10.59L49.42 10.61L49.69 11.01L49.88 11.06L50.05 11.41L50.13 11.53L50.47 11.59L50.43 11.79L50.29 11.88L50.4 12.04L50.15 12.21L49.78 12.2L49.31 12.29L49.18 12.23L49 12.37L48.74 12.34L48.54 12.46L48.4 12.39L48.8 12.07L49.05 12L48.62 11.95L48.54 11.82L48.83 11.73L48.67 11.56L48.73 11.36L49.14 11.39L49.18 11.2L48.99 11.01L48.65 10.95L48.59 10.87L48.69 10.73L48.6 10.64L48.45 10.79L48.43 10.49L48.29 10.33L48.39 10.01L48.61 9.76L48.83 9.78L49.17 9.76ZM4.01 9.36L3.84 9.41L3.65 9.35L3.48 9.27L3.76 9.21L3.98 9.24L4.01 9.36ZM27.98 8.66L27.87 8.83L27.75 8.8L27.68 8.71L27.69 8.68L27.8 8.59L27.91 8.6L27.98 8.66ZM27.25 8.49L26.93 8.66L26.73 8.65L26.67 8.57L26.87 8.43L27.26 8.43L27.25 8.49ZM2.3 8.16L2.47 8.22L2.64 8.18L2.87 8.27L3.14 8.31L3.12 8.34L2.91 8.41L2.7 8.34L2.59 8.28L2.35 8.3L2.28 8.27L2.3 8.16ZM26.34 7.57L26.4 7.71L26.54 7.66L26.7 7.74L27 7.85L27.32 7.95L27.35 8.1L27.55 8.07L27.75 8.17L27.5 8.27L27.07 8.2L26.91 8.06L26.64 8.22L26.24 8.38L26.15 8.2L25.77 8.23L26.01 8.08L26.05 7.83L26.14 7.55L26.34 7.57ZM45.97 7.32L45.91 7.53L46.22 7.74L45.86 7.98L45.06 8.19L44.82 8.25L44.45 8.2L43.68 8.1L43.95 7.96L43.35 7.81L43.84 7.75L43.83 7.66L43.24 7.59L43.43 7.38L43.85 7.34L44.28 7.55L44.71 7.38L45.06 7.47L45.51 7.3L45.97 7.32ZM28.93 7.11L28.61 7.12L28.55 6.97L28.66 6.8L28.92 6.76L29.13 6.84L29.14 6.97L29.11 7.02L28.93 7.11ZM1.38 7.28L1.57 7.36L1.51 7.14L2.26 7.18L2.81 7.47L2.53 7.61L2.07 7.64L2.07 7.95L1.96 8.01L1.7 8L1.49 7.89L1.12 7.8L1.05 7.67L0.77 7.62L0.46 7.66L0.3 7.55L0.36 7.43L0.03 7.51L0.16 7.65L0 7.78L0 6.54L0.68 6.78L1.41 7.09L1.38 7.28ZM23.43 6.5L23.26 6.61L22.88 6.51L22.66 6.55L22.28 6.41L22.52 6.31L22.72 6.18L23.01 6.27L23.18 6.32L23.26 6.38L23.43 6.5ZM100 5.96L99.7 5.98L99.65 5.88L100 5.75L100 5.96ZM0.36 5.94L0 5.96L0 5.75L0.04 5.74L0.27 5.74L0.67 5.83L0.65 5.87L0.36 5.94ZM24.85 6.38L24.85 6.7L25.22 6.45L25.55 6.65L25.47 6.88L25.74 7.09L26.03 6.87L26.23 6.6L26.24 6.26L26.64 6.28L27.05 6.33L27.42 6.48L27.44 6.64L27.23 6.8L27.43 6.97L27.39 7.12L26.85 7.34L26.46 7.39L26.18 7.29L26.09 7.45L25.82 7.71L25.74 7.85L25.42 8.06L25.02 8.08L24.8 8.21L24.79 8.41L24.46 8.45L24.12 8.7L23.82 9.05L23.71 9.3L23.7 9.66L24.11 9.71L24.23 10L24.36 10.24L24.75 10.18L25.27 10.31L25.54 10.43L25.74 10.58L26.09 10.66L26.39 10.79L26.84 10.81L27.15 10.84L27.1 11.11L27.19 11.42L27.39 11.77L27.8 12.07L28.02 11.97L28.17 11.65L28.02 11.16L27.83 10.99L28.27 10.85L28.58 10.63L28.74 10.41L28.72 10.2L28.53 9.94L28.19 9.71L28.52 9.38L28.4 9.1L28.3 8.61L28.5 8.54L28.97 8.62L29.26 8.65L29.49 8.57L29.75 8.68L30.09 8.86L30.17 8.98L30.67 9L30.66 9.26L30.75 9.66L31.01 9.71L31.21 9.89L31.61 9.72L31.88 9.37L32.06 9.23L32.28 9.51L32.64 9.9L32.95 10.28L32.83 10.47L33.2 10.65L33.45 10.83L33.9 10.91L34.07 11.01L34.18 11.27L34.4 11.31L34.51 11.43L34.53 11.78L34.33 11.89L34.13 12L33.67 12.11L33.32 12.37L32.85 12.42L32.26 12.35L31.84 12.35L31.56 12.37L31.32 12.6L30.97 12.73L30.57 13.15L30.25 13.43L30.48 13.38L30.93 12.97L31.51 12.71L31.93 12.68L32.17 12.84L31.91 13.04L32 13.38L32.09 13.61L32.45 13.77L32.91 13.73L33.19 13.38L33.21 13.6L33.39 13.71L33.04 13.92L32.43 14.1L32.15 14.23L31.84 14.45L31.63 14.43L31.62 14.17L32.1 13.91L31.66 13.92L31.35 13.96L31.4 14.06L31.1 14.21L30.82 14.32L30.52 14.41L30.36 14.61L30.33 14.66L30.33 14.83L30.42 14.99L30.53 15L30.5 14.89L30.59 14.96L30.57 15.05L30.38 15.1L30.24 15.09L30.04 15.14L29.92 15.16L29.76 15.18L29.52 15.27L29.93 15.21L30.02 15.27L29.63 15.36L29.45 15.36L29.46 15.32L29.37 15.41L29.45 15.42L29.39 15.65L29.19 15.89L29.17 15.81L29.11 15.79L29.02 15.71L29.08 15.88L29.14 15.93L29.15 16.05L29.06 16.17L28.91 16.42L28.88 16.41L28.97 16.2L28.82 16.08L28.79 15.82L28.74 15.95L28.8 16.15L28.62 16.11L28.81 16.2L28.82 16.5L28.9 16.52L28.93 16.63L28.96 16.94L28.79 17.17L28.5 17.26L28.32 17.45L28.18 17.47L28.04 17.58L28 17.68L27.69 17.89L27.54 18.03L27.41 18.22L27.36 18.44L27.41 18.66L27.51 18.92L27.63 19.14L27.63 19.28L27.76 19.64L27.75 19.85L27.74 19.97L27.67 20.16L27.59 20.2L27.45 20.16L27.41 20.02L27.3 19.95L27.16 19.68L27.03 19.45L26.98 19.32L27.04 19.12L26.96 18.95L26.75 18.69L26.64 18.64L26.36 18.78L26.31 18.76L26.17 18.62L26 18.54L25.69 18.58L25.44 18.55L25.23 18.57L25.11 18.61L25.16 18.7L25.16 18.83L25.22 18.89L25.16 18.93L25.06 18.88L24.96 18.94L24.76 18.93L24.55 18.77L24.31 18.81L24.1 18.73L23.93 18.76L23.7 18.83L23.44 19.06L23.17 19.19L23.02 19.34L22.95 19.48L22.95 19.7L22.96 19.85L23.02 19.95L23.02 19.95L23.02 19.95L22.91 20.22L22.86 20.45L22.84 20.87L22.81 21.02L22.86 21.19L22.95 21.34L23 21.58L23.19 21.81L23.25 21.99L23.36 22.14L23.66 22.22L23.77 22.36L24.01 22.27L24.23 22.24L24.43 22.18L24.61 22.13L24.79 22L24.85 21.82L24.87 21.56L24.92 21.47L25.11 21.39L25.4 21.31L25.65 21.32L25.82 21.3L25.89 21.36L25.88 21.51L25.73 21.7L25.66 21.89L25.71 21.94L25.67 22.08L25.6 22.32L25.53 22.24L25.47 22.24L25.47 22.29L25.53 22.29L25.52 22.38L25.48 22.51L25.5 22.56L25.47 22.67L25.49 22.7L25.46 22.86L25.4 22.94L25.35 22.95L25.3 23.06L25.39 23.11L25.41 23.07L25.49 23.11L25.52 23.12L25.58 23.06L25.66 23.06L25.69 23.09L25.73 23.07L25.86 23.1L25.99 23.09L26.08 23.06L26.11 23.02L26.2 23.04L26.27 23.06L26.34 23.05L26.39 23.02L26.52 23.07L26.56 23.07L26.65 23.13L26.73 23.2L26.83 23.25L26.9 23.33L26.88 23.36L26.87 23.43L26.89 23.55L26.83 23.65L26.8 23.78L26.79 23.92L26.81 24L26.81 24.14L26.77 24.17L26.74 24.3L26.76 24.38L26.71 24.46L26.72 24.55L26.76 24.6L26.83 24.77L26.94 24.89L27.07 25.02L27.17 25.14L27.16 25.2L27.28 25.22L27.3 25.19L27.38 25.27L27.51 25.24L27.63 25.17L27.8 25.1L27.9 25.01L28.05 25.03L28.04 25.06L28.19 25.07L28.32 25.12L28.41 25.22L28.51 25.3L28.66 25.31L28.86 25.1L28.98 25.06L28.98 24.96L29.03 24.7L29.19 24.55L29.37 24.55L29.39 24.48L29.61 24.51L29.83 24.35L29.93 24.28L30.07 24.13L30.17 24.15L30.24 24.23L30.19 24.34L30.18 24.41L30.01 24.45L30.11 24.59L30.1 24.75L29.98 24.93L30.08 25.18L30.2 25.16L30.27 24.93L30.18 24.82L30.17 24.59L30.51 24.46L30.47 24.31L30.57 24.22L30.67 24.43L30.87 24.44L31.05 24.61L31.06 24.72L31.31 24.72L31.6 24.69L31.76 24.83L31.97 24.86L32.13 24.77L32.13 24.69L32.48 24.67L32.81 24.67L32.57 24.76L32.67 24.9L32.89 24.93L33.1 25.08L33.15 25.33L33.29 25.32L33.4 25.4L33.58 25.51L33.75 25.71L33.76 25.87L33.87 25.88L34.02 26.03L34.13 26.14L34.46 26.2L34.49 26.15L34.71 26.13L35.01 26.21L35.11 26.24L35.31 26.32L35.6 26.58L35.65 26.71L35.75 26.69L35.81 26.86L35.97 27.41L36.12 27.46L36.13 27.67L35.92 27.93L36 28.02L36.49 28.07L36.5 28.39L36.72 28.18L37.06 28.29L37.53 28.48L37.66 28.67L37.62 28.84L37.94 28.74L38.48 28.91L38.89 28.89L39.31 29.15L39.66 29.5L39.87 29.59L40.11 29.6L40.21 29.7L40.31 30.1L40.35 30.28L40.24 30.8L40.1 31L39.71 31.43L39.53 31.79L39.33 32.06L39.26 32.06L39.18 32.29L39.2 32.87L39.12 33.35L39.09 33.56L39 33.68L38.96 34.1L38.67 34.5L38.63 34.82L38.4 34.96L38.34 35.15L38.03 35.15L37.6 35.27L37.4 35.4L37.09 35.49L36.76 35.74L36.53 36.05L36.49 36.28L36.53 36.45L36.48 36.77L36.42 36.92L36.23 37.09L35.92 37.64L35.67 37.89L35.48 38.03L35.36 38.33L35.17 38.51L35.05 38.7L34.74 38.87L34.53 38.81L34.38 38.85L34.13 38.71L33.94 38.72L33.77 38.55L33.75 38.71L34.1 38.98L34.07 39.19L34.24 39.33L34.23 39.48L33.96 39.88L33.55 40.05L32.99 40.11L32.68 40.08L32.74 40.27L32.69 40.5L32.74 40.66L32.57 40.76L32.29 40.81L32.02 40.69L31.91 40.78L31.95 41.08L32.14 41.18L32.29 41.08L32.37 41.24L32.12 41.34L31.89 41.53L31.85 41.84L31.79 42.01L31.53 42.01L31.31 42.17L31.23 42.4L31.5 42.63L31.77 42.7L31.67 42.97L31.34 43.15L31.16 43.52L30.91 43.64L30.79 43.78L30.88 44.11L31.07 44.29L30.95 44.27L30.71 44.27L30.57 44.35L30.32 44.46L30.28 44.75L30.16 44.76L29.85 44.65L29.53 44.44L29.18 44.26L29.09 44.06L29.17 43.88L29.03 43.67L29 43.14L29.12 42.84L29.41 42.6L28.99 42.51L29.25 42.24L29.35 41.72L29.66 41.83L29.8 41.19L29.61 41.1L29.53 41.49L29.35 41.45L29.44 41L29.53 40.43L29.66 40.21L29.58 39.91L29.56 39.56L29.68 39.55L29.85 39.05L30.04 38.55L30.16 38.09L30.09 37.62L30.18 37.36L30.14 36.98L30.3 36.6L30.35 36L30.44 35.35L30.53 34.66L30.51 34.15L30.45 33.71L30.17 33.53L30.15 33.4L29.6 33.09L29.1 32.75L28.89 32.56L28.77 32.3L28.82 32.21L28.58 31.8L28.31 31.23L28.05 30.61L27.93 30.47L27.84 30.24L27.63 30.04L27.43 29.91L27.52 29.77L27.39 29.47L27.47 29.26L27.69 29.06L27.84 28.83L27.78 28.69L27.68 28.84L27.51 28.7L27.57 28.61L27.52 28.33L27.62 28.28L27.67 28.09L27.77 27.89L27.75 27.76L27.9 27.69L28.1 27.57L28.06 27.47L28.16 27.45L28.15 27.29L28.21 27.18L28.35 27.16L28.47 26.97L28.58 26.8L28.47 26.73L28.53 26.55L28.46 26.26L28.52 26.18L28.48 25.92L28.37 25.75L28.27 25.66L28.21 25.49L28.28 25.41L28.21 25.39L28.16 25.29L28.02 25.2L27.9 25.22L27.84 25.33L27.73 25.41L27.67 25.42L27.64 25.48L27.78 25.65L27.7 25.69L27.66 25.74L27.53 25.75L27.48 25.57L27.45 25.62L27.36 25.6L27.3 25.48L27.19 25.46L27.11 25.42L26.99 25.42L26.99 25.49L26.95 25.44L26.8 25.37L26.75 25.31L26.78 25.25L26.77 25.18L26.69 25.11L26.58 25.05L26.49 25.01L26.47 24.92L26.4 24.86L26.41 24.95L26.36 25.03L26.29 24.94L26.21 24.91L26.17 24.85L26.17 24.75L26.21 24.65L26.13 24.61L26.19 24.55L26.09 24.45L25.97 24.33L25.9 24.22L25.79 24.12L25.65 23.98L25.68 23.94L25.72 23.98L25.75 23.96L25.7 23.86L25.61 23.84L25.58 23.91L25.42 23.9L25.32 23.87L25.21 23.81L25.05 23.79L24.97 23.73L24.83 23.67L24.66 23.67L24.53 23.61L24.38 23.48L24.07 23.14L23.92 23.04L23.7 22.96L23.54 22.98L23.32 23.1L23.18 23.13L22.98 23.05L22.77 22.99L22.51 22.85L22.31 22.8L21.99 22.66L21.76 22.51L21.69 22.43L21.53 22.41L21.25 22.31L21.13 22.17L20.84 21.99L20.7 21.79L20.63 21.64L20.72 21.61L20.69 21.52L20.76 21.44L20.76 21.34L20.67 21.2L20.64 21.07L20.55 20.91L20.3 20.61L20.02 20.36L19.89 20.17L19.65 20.04L19.6 19.97L19.64 19.77L19.5 19.7L19.34 19.55L19.27 19.33L19.12 19.31L18.96 19.14L18.83 18.99L18.81 18.89L18.66 18.66L18.57 18.42L18.57 18.3L18.37 18.18L18.28 18.19L18.12 18.11L18.07 18.23L18.12 18.38L18.15 18.62L18.24 18.74L18.45 18.96L18.49 19.03L18.54 19.05L18.57 19.16L18.62 19.16L18.68 19.36L18.76 19.44L18.82 19.55L19 19.7L19.09 19.99L19.17 20.13L19.25 20.28L19.26 20.44L19.4 20.45L19.51 20.59L19.61 20.73L19.6 20.79L19.48 20.9L19.44 20.9L19.36 20.71L19.18 20.53L18.98 20.38L18.84 20.3L18.85 20.08L18.81 19.91L18.67 19.81L18.48 19.67L18.45 19.71L18.38 19.63L18.2 19.56L18.04 19.38L18.06 19.35L18.17 19.37L18.28 19.25L18.29 19.11L18.07 18.89L17.91 18.8L17.81 18.61L17.71 18.41L17.58 18.16L17.46 17.88L17.42 17.72L17.24 17.54L17.11 17.5L17.08 17.41L16.92 17.4L16.82 17.31L16.56 17.28L16.49 17.23L16.46 17.06L16.19 16.75L15.96 16.32L15.97 16.25L15.85 16.14L15.63 15.88L15.59 15.63L15.44 15.46L15.51 15.2L15.5 14.93L15.41 14.69L15.52 14.4L15.58 13.84L15.53 13.42L15.45 13.15L15.36 13.01L15.4 12.95L15.8 13.05L15.95 13.35L16.02 13.27L15.97 13.01L15.88 12.76L15.84 12.75L15.3 12.45L15.1 12.31L14.6 12.19L14.45 11.91L14.49 11.72L14.13 11.59L14.08 11.34L13.75 11.11L13.74 10.95L13.59 10.83L13.34 10.73L13.26 10.46L12.91 10.21L12.76 9.92L12.49 9.9L12.05 9.89L11.72 9.8L11.15 9.48L10.88 9.42L10.4 9.31L10.01 9.33L9.47 9.19L9.13 9.06L8.83 9.12L8.88 9.34L8.73 9.36L8.41 9.42L8.16 9.53L7.86 9.6L7.82 9.41L7.94 9.11L8.24 9.01L8.16 8.93L7.81 9.11L7.62 9.31L7.22 9.54L7.42 9.69L7.16 9.91L6.86 10.04L6.58 10.14L6.51 10.27L6.08 10.43L5.99 10.58L5.67 10.71L5.48 10.69L5.22 10.78L4.93 10.88L4.7 10.99L4.23 11.07L4.18 11.02L4.49 10.88L4.76 10.78L5.05 10.61L5.4 10.58L5.54 10.45L5.92 10.26L5.98 10.2L6.19 10.09L6.24 9.85L6.38 9.67L6.06 9.76L5.97 9.71L5.82 9.82L5.64 9.67L5.56 9.78L5.46 9.62L5.18 9.75L5.01 9.75L4.98 9.56L5.03 9.45L4.86 9.34L4.49 9.4L4.26 9.25L4.07 9.18L4.07 9L3.86 8.87L3.96 8.69L4.19 8.51L4.29 8.35L4.51 8.33L4.7 8.38L4.93 8.23L5.13 8.26L5.34 8.16L5.29 8.02L5.13 7.96L5.34 7.84L5.17 7.85L4.87 7.91L4.79 7.98L4.57 7.91L4.18 7.95L3.77 7.88L3.65 7.75L3.3 7.57L3.69 7.44L4.31 7.29L4.54 7.29L4.5 7.44L5.09 7.43L4.86 7.24L4.52 7.12L4.32 6.96L4.06 6.83L3.68 6.73L3.83 6.57L4.32 6.56L4.68 6.42L4.74 6.27L5.03 6.12L5.3 6.08L5.82 5.94L6.08 5.97L6.51 5.8L6.93 5.87L7.13 6.01L7.25 5.95L7.72 5.96L7.7 6.04L8.13 6.09L8.41 6.06L9 6.16L9.53 6.18L9.74 6.23L10.11 6.17L10.54 6.27L10.84 6.31L11.36 6.39L11.79 6.54L12.08 6.57L12.33 6.44L12.66 6.34L13.08 6.38L13.49 6.24L13.95 6.16L14.14 6.29L14.34 6.22L14.41 6.07L14.6 6.1L15.07 6.38L15.44 6.17L15.48 6.41L15.82 6.36L15.92 6.27L16.26 6.29L16.68 6.42L17.33 6.53L17.71 6.58L17.99 6.56L18.36 6.72L17.97 6.87L18.47 6.94L19.22 6.9L19.46 6.85L19.76 7.04L20.06 6.88L19.77 6.75L19.95 6.64L20.29 6.63L20.51 6.6L20.74 6.67L21.02 6.84L21.33 6.81L21.82 6.95L22.25 6.9L22.65 6.91L22.62 6.72L22.87 6.66L23.3 6.77L23.3 7.06L23.48 6.82L23.7 6.82L23.82 6.51L23.53 6.32L23.2 6.19L23.22 5.85L23.55 5.62L23.92 5.67L24.2 5.81L24.58 6.16L24.33 6.32L24.85 6.38ZM18.29 5.25L18.15 5.4L18.77 5.3L19.15 5.46L19.47 5.3L19.72 5.4L19.95 5.71L20.09 5.58L19.89 5.26L20.13 5.22L20.41 5.27L20.72 5.39L20.9 5.69L20.98 5.91L21.45 6.07L21.95 6.21L21.92 6.35L21.46 6.38L21.64 6.5L21.55 6.61L21.04 6.56L20.57 6.48L20.24 6.5L19.72 6.6L18.9 6.66L18.52 6.68L18.37 6.53L17.99 6.45L17.75 6.48L17.41 6.23L17.59 6.2L18.02 6.15L18.41 6.16L18.77 6.11L18.24 6.04L17.64 6.06L17.25 6.05L17.1 5.94L17.75 5.81L17.32 5.82L16.83 5.74L17.07 5.5L17.26 5.38L18 5.19L18.29 5.25ZM20.97 5.16L20.73 5.36L20.29 5.15L20.39 5.1L20.76 5.09L20.97 5.16ZM28.79 5.26L28.82 5.34L28.52 5.33L28.22 5.33L27.92 5.37L27.84 5.35L27.53 5.19L27.55 5.07L27.68 5.05L28.32 5.09L28.79 5.26ZM25.95 5.24L26.17 5.43L26.43 5.18L27.13 5.06L27.61 5.38L27.57 5.58L28.12 5.49L28.38 5.37L29 5.52L29.38 5.67L29.42 5.81L29.93 5.74L30.22 5.94L30.89 6.06L31.13 6.18L31.4 6.48L30.89 6.62L31.54 6.82L31.98 6.89L32.38 7.18L32.82 7.2L32.73 7.42L32.24 7.78L31.9 7.65L31.47 7.35L31.11 7.38L31.07 7.56L31.36 7.74L31.74 7.89L31.86 7.97L32.04 8.28L31.94 8.5L31.59 8.42L30.89 8.17L31.29 8.44L31.58 8.62L31.62 8.73L30.87 8.61L30.27 8.43L29.93 8.28L30.03 8.19L29.62 8.03L29.21 7.88L29.22 7.97L28.41 8.02L28.18 7.91L28.36 7.68L28.88 7.68L29.46 7.64L29.36 7.53L29.46 7.37L29.82 7.07L29.74 6.93L29.64 6.82L29.21 6.67L28.65 6.57L28.83 6.49L28.53 6.29L28.29 6.28L28.07 6.17L27.92 6.26L27.42 6.3L26.4 6.23L25.82 6.14L25.37 6.09L25.14 5.99L25.43 5.84L25.03 5.84L24.94 5.53L25.16 5.25L25.44 5.12L26.16 5.04L25.95 5.24ZM22.12 5.03L22.45 5.09L22.95 5.05L23.02 5.14L22.76 5.29L23.18 5.43L23.13 5.71L22.68 5.83L22.41 5.8L22.22 5.68L21.53 5.44L21.53 5.34L22.1 5.38L21.79 5.18L22.12 5.03ZM89.89 5.22L89.47 5.22L88.9 5.19L88.85 5.17L89.11 5.05L89.46 5.02L89.86 5.14L89.89 5.22ZM24.11 5.36L23.81 5.59L23.5 5.58L23.32 5.31L23.33 5.15L23.47 5.02L23.75 4.94L24.33 4.95L24.86 5.02L24.44 5.3L24.11 5.36ZM16.54 5.79L15.81 5.94L15.66 5.81L15.02 5.64L15.11 5.54L15.33 5.28L15.57 5.08L15.3 4.89L16.24 4.84L16.64 4.9L17.35 4.92L17.62 5.01L17.91 5.14L17.56 5.22L16.88 5.44L16.54 5.66L16.54 5.79ZM91.87 4.64L91.55 4.76L91.1 4.74L90.59 4.61L90.66 4.51L91.17 4.56L91.87 4.64ZM24 4.67L23.85 4.79L23.44 4.77L23.11 4.69L23.25 4.55L23.65 4.47L23.9 4.57L24 4.67ZM90.3 4.49L90.08 4.72L89.06 4.71L88.6 4.79L88.05 4.59L88.2 4.37L88.56 4.31L89.3 4.33L90.3 4.49ZM22.64 4.13L22.85 4.28L22.86 4.44L22.73 4.67L22.28 4.7L21.98 4.65L21.98 4.47L21.53 4.49L21.51 4.25L21.81 4.26L22.23 4.15L22.62 4.17L22.64 4.13ZM19.94 4.29L20.05 4.4L20.3 4.35L20.59 4.37L20.64 4.52L20.47 4.67L19.53 4.71L18.83 4.85L18.4 4.86L18.37 4.75L18.95 4.62L17.69 4.65L17.3 4.6L17.68 4.29L17.94 4.21L18.72 4.31L19.22 4.5L19.7 4.52L19.31 4.22L19.56 4.11L19.85 4.14L19.94 4.29ZM65.98 6L65.82 6.03L64.91 5.98L64.84 5.85L64.33 5.76L64.29 5.6L64.58 5.53L64.57 5.36L65.12 5.09L64.86 5.06L65.53 4.78L65.45 4.64L66.07 4.48L66.99 4.28L67.92 4.22L68.39 4.1L68.93 4.06L69.13 4.19L68.94 4.28L67.95 4.44L67.11 4.59L66.24 4.88L65.83 5.19L65.39 5.48L65.45 5.74L65.98 6ZM23.7 4.01L24.01 4.11L24.55 4.11L24.79 4.22L24.73 4.33L25.05 4.4L25.23 4.48L25.6 4.49L26.01 4.52L26.45 4.45L27.01 4.42L27.46 4.44L27.76 4.56L27.82 4.69L27.65 4.77L27.24 4.84L26.88 4.8L26.08 4.85L25.51 4.86L25.07 4.82L24.33 4.72L24.23 4.55L24.2 4.39L23.92 4.26L23.34 4.22L23.02 4.12L23.13 3.99L23.7 4.01ZM17.72 3.84L17.68 4.08L17.47 4.19L17.21 4.21L16.69 4.34L16.25 4.39L15.87 4.32L15.87 4.32L16.35 4.09L16.92 3.89L17.34 3.89L17.72 3.84ZM79.71 4.05L79.79 4.21L80.04 4.13L80.85 4.13L81.48 4.29L81.7 4.4L81.63 4.56L81.33 4.66L80.6 4.83L80.39 4.92L80.73 4.97L81.14 5.04L81.39 4.98L81.54 5.18L81.66 5.1L82.1 5.05L82.99 5.11L83.06 5.25L84.22 5.3L84.24 5.06L84.83 5.11L85.27 5.11L85.72 5.28L85.85 5.48L85.68 5.61L86.03 5.85L86.47 5.98L86.74 5.65L87.18 5.79L87.66 5.71L88.19 5.8L88.4 5.72L88.85 5.76L88.65 5.47L89.02 5.34L91.53 5.54L91.76 5.72L92.49 5.96L93.61 5.9L94.17 5.95L94.4 6.08L94.36 6.31L94.71 6.4L95.08 6.33L95.57 6.33L96.09 6.39L96.62 6.35L97.1 6.63L97.45 6.53L97.22 6.33L97.35 6.19L98.23 6.28L98.81 6.26L99.61 6.41L100 6.54L100 7.78L100 7.79L99.64 7.92L99.28 7.9L99.53 8.07L99.7 8.32L99.83 8.41L99.86 8.53L99.79 8.62L99.27 8.55L98.49 8.78L98.24 8.82L97.82 9.04L97.42 9.23L97.31 9.37L96.92 9.15L96.19 9.4L96.07 9.28L95.8 9.42L95.43 9.37L95.34 9.58L95 9.88L95.01 10.01L95.33 10.08L95.29 10.53L95.04 10.54L94.92 10.8L95.03 10.93L94.55 11.09L94.45 11.45L94.04 11.52L93.95 11.84L93.55 12.13L93.45 11.92L93.33 11.46L93.18 10.77L93.31 10.34L93.54 10.15L93.56 10.01L93.99 9.94L94.49 9.55L94.96 9.23L95.46 8.98L95.69 8.54L95.35 8.57L95.18 8.82L94.48 9.16L94.25 8.78L93.53 8.89L92.84 9.41L93.07 9.6L92.45 9.68L92.02 9.71L92.04 9.49L91.61 9.44L91.26 9.59L90.41 9.54L89.5 9.63L88.6 10.24L87.54 10.97L87.97 11.01L88.11 11.21L88.38 11.28L88.56 11.12L88.86 11.14L89.26 11.48L89.27 11.75L89.05 12.06L89.03 12.43L88.91 12.93L88.49 13.38L88.39 13.59L88.02 13.96L87.64 14.31L87.46 14.5L87.09 14.68L86.92 14.68L86.74 14.53L86.37 14.76L86.33 14.86L86.22 14.85L86.1 14.95L86.02 15.06L86.03 15.28L85.89 15.35L85.84 15.4L85.73 15.5L85.55 15.55L85.43 15.63L85.42 15.77L85.38 15.8L85.5 15.85L85.65 15.99L85.89 16.35L85.96 16.56L85.96 16.91L85.86 17.09L85.61 17.15L85.39 17.27L85.13 17.3L85.1 17.13L85.16 16.9L85.03 16.57L85.24 16.52L85.05 16.26L84.91 16.2L84.88 16.25L84.8 16.28L84.79 16.22L84.72 16.19L84.64 16.14L84.72 16.01L84.78 15.97L84.76 15.91L84.83 15.75L84.81 15.7L84.65 15.66L84.52 15.58L84.13 15.67L83.93 15.81L83.63 15.9L83.77 15.75L83.72 15.63L83.94 15.42L83.79 15.26L83.55 15.37L83.23 15.59L83.06 15.79L82.79 15.8L82.65 15.95L82.79 16.16L83.02 16.21L83.03 16.35L83.25 16.44L83.56 16.22L83.81 16.34L83.99 16.35L84.03 16.51L83.64 16.6L83.51 16.77L83.24 16.92L83.1 17.14L83.4 17.31L83.51 17.62L83.67 17.9L83.86 18.14L83.86 18.37L83.68 18.46L83.75 18.62L83.91 18.72L83.87 18.97L83.8 19.22L83.65 19.25L83.44 19.58L83.22 19.99L82.96 20.36L82.58 20.65L82.19 20.91L81.88 20.95L81.71 21.09L81.61 20.98L81.46 21.14L81.07 21.3L80.77 21.34L80.68 21.67L80.52 21.69L80.45 21.46L80.52 21.34L80.15 21.24L80.01 21.29L79.64 21.56L79.41 21.85L79.35 22.07L79.56 22.4L79.82 22.81L80.07 23L80.24 23.25L80.37 23.82L80.33 24.37L80.1 24.58L79.78 24.78L79.56 25.03L79.21 25.32L79.11 25.12L79.19 24.91L78.98 24.74L78.75 24.69L78.64 24.53L78.5 24.21L78.25 24.07L78.01 24.07L78.05 23.83L77.8 23.83L77.78 24.17L77.63 24.63L77.54 24.9L77.56 25.13L77.74 25.14L77.86 25.42L77.91 25.69L78.06 25.87L78.23 25.9L78.37 26.06L78.44 26.09L78.6 26.28L78.72 26.49L78.73 26.7L78.7 26.84L78.73 26.95L78.75 27.13L78.85 27.22L78.96 27.49L78.95 27.6L78.76 27.62L78.49 27.39L78.16 27.14L78.13 26.98L77.97 26.77L77.93 26.52L77.83 26.35L77.86 26.12L77.8 25.99L77.69 25.87L77.64 25.72L77.5 25.54L77.36 25.39L77.32 25.58L77.26 25.4L77.29 25.21L77.38 24.91L77.35 24.68L77.43 24.44L77.34 24.26L77.36 23.92L77.25 23.76L77.16 23.38L77.11 22.99L76.99 22.73L76.81 22.89L76.49 23.11L76.34 23.08L76.16 23.01L76.26 22.62L76.2 22.33L75.98 21.97L76.02 21.86L75.86 21.82L75.66 21.57L75.58 21.41L75.56 21.25L75.51 21.1L75.39 20.92L75.14 20.91L75.16 21.03L75.08 21.21L74.96 21.14L74.92 21.2L74.84 21.17L74.73 21.14L74.69 21.25L74.5 21.25L74.16 21.31L74.18 21.55L74.03 21.73L73.63 21.94L73.32 22.31L73.11 22.5L72.83 22.71L72.83 22.85L72.69 22.93L72.44 23.04L72.31 23.05L72.23 23.29L72.29 23.7L72.3 23.95L72.18 24.25L72.18 24.78L72.04 24.79L71.91 25.03L72 25.13L71.74 25.22L71.65 25.43L71.54 25.52L71.28 25.23L71.15 24.8L71.04 24.48L70.94 24.33L70.8 24.04L70.73 23.65L70.68 23.45L70.43 23.03L70.31 22.42L70.23 22.02L70.23 21.65L70.18 21.36L69.77 21.54L69.58 21.5L69.21 21.13L69.35 21.02L69.26 20.89L68.94 20.63L68.73 20.55L68.65 20.33L68.44 20.09L67.93 20.15L67.47 20.15L67.08 20.2L66.56 20.1L66.26 20.03L65.94 19.99L65.83 19.61L65.69 19.56L65.48 19.61L65.2 19.76L64.86 19.66L64.58 19.42L64.31 19.33L64.13 19.04L63.92 18.62L63.77 18.67L63.59 18.57L63.49 18.69L63.33 18.67L63.38 18.81L63.36 18.88L63.45 19.12L63.56 19.39L63.69 19.46L63.74 19.57L63.93 19.7L63.95 19.82L63.92 19.93L63.96 20.03L64.04 20.12L64.07 20.22L64.11 20.3L64.1 20.07L64.17 19.91L64.25 19.88L64.33 19.97L64.34 20.16L64.27 20.34L64.33 20.46L64.38 20.44L64.39 20.53L64.6 20.48L64.83 20.49L65 20.5L65.19 20.29L65.4 20.09L65.58 19.89L65.66 19.79L65.69 19.81L65.66 19.94L65.63 20L65.67 20.25L65.79 20.46L65.95 20.57L66.15 20.61L66.31 20.67L66.44 20.85L66.51 20.95L66.61 20.99L66.61 21.06L66.51 21.24L66.47 21.33L66.35 21.43L66.25 21.64L66.12 21.63L66.06 21.7L66.02 21.86L66.05 22.07L66.03 22.11L65.9 22.11L65.72 22.22L65.7 22.37L65.63 22.44L65.46 22.44L65.35 22.51L65.35 22.64L65.22 22.73L65.07 22.7L64.88 22.8L64.75 22.82L64.55 22.9L64.5 23.04L64.49 23.15L64.21 23.28L63.77 23.42L63.52 23.64L63.4 23.66L63.32 23.64L63.15 23.77L62.98 23.83L62.74 23.85L62.67 23.86L62.61 23.95L62.54 23.97L62.5 24.05L62.36 24.04L62.27 24.08L62.08 24.07L62.01 23.89L62.01 23.72L61.97 23.62L61.91 23.39L61.83 23.27L61.89 23.25L61.86 23.11L61.9 23.05L61.88 22.91L61.85 22.78L61.76 22.69L61.74 22.56L61.6 22.45L61.45 22.19L61.37 21.94L61.18 21.72L61.06 21.67L60.87 21.38L60.84 21.16L60.85 20.98L60.69 20.63L60.56 20.51L60.41 20.44L60.32 20.27L60.34 20.2L60.26 20.03L60.18 19.97L60.07 19.73L59.9 19.48L59.76 19.27L59.62 19.27L59.66 19.1L59.68 18.99L59.71 18.87L59.7 18.82L59.62 18.95L59.56 19.18L59.49 19.34L59.42 19.4L59.33 19.3L59.2 19.16L59.01 18.71L58.98 18.74L59.09 19.07L59.26 19.38L59.47 19.87L59.58 20.04L59.67 20.21L59.91 20.56L59.86 20.61L59.87 20.81L60.19 21.09L60.24 21.16L60.33 21.46L60.27 21.52L60.31 21.84L60.41 22.21L60.52 22.29L60.67 22.4L60.83 22.76L60.91 23.05L61.06 23.2L61.44 23.49L61.59 23.67L61.74 23.85L61.83 23.96L61.97 24.05L62.03 24.15L62.02 24.27L61.87 24.35L61.98 24.43L62.08 24.49L62.13 24.62L62.25 24.75L62.39 24.75L62.65 24.67L62.96 24.63L63.2 24.54L63.34 24.52L63.44 24.46L63.6 24.45L63.69 24.44L63.81 24.4L63.96 24.37L64.09 24.26L64.2 24.26L64.2 24.34L64.18 24.53L64.18 24.69L64.12 24.8L64.04 25.14L63.91 25.49L63.74 25.88L63.5 26.34L63.26 26.69L62.93 27.11L62.66 27.36L62.24 27.67L61.98 27.91L61.68 28.29L61.61 28.45L61.55 28.52L61.36 28.65L61.29 28.78L61.18 28.8L61.14 29.02L61.06 29.15L61 29.35L60.89 29.45L60.76 29.84L60.78 30.01L60.96 30.13L60.96 30.21L60.89 30.4L60.9 30.49L60.89 30.64L60.98 30.83L61.1 31.14L61.2 31.21L61.24 31.35L61.23 31.66L61.27 31.93L61.28 32.42L61.33 32.57L61.24 32.79L61.14 33.01L60.96 33.2L60.71 33.32L60.39 33.47L60.08 33.81L59.97 33.86L59.78 34.08L59.66 34.16L59.64 34.38L59.77 34.61L59.83 34.79L59.83 34.89L59.88 34.87L59.87 35.18L59.83 35.32L59.89 35.38L59.85 35.5L59.73 35.62L59.5 35.72L59.17 35.89L59.05 36L59.07 36.14L59.14 36.16L59.12 36.32L59.05 36.55L59.02 36.8L58.95 36.95L58.76 37.1L58.7 37.15L58.58 37.31L58.51 37.47L58.35 37.69L58.03 38.01L57.84 38.2L57.63 38.34L57.34 38.46L57.2 38.47L57.16 38.56L56.99 38.51L56.85 38.57L56.55 38.51L56.39 38.55L56.27 38.54L55.98 38.66L55.75 38.71L55.58 38.83L55.45 38.83L55.33 38.72L55.24 38.72L55.12 38.58L55.1 38.62L55.07 38.54L55.07 38.35L54.98 38.15L55.07 38.09L55.06 37.85L54.88 37.56L54.74 37.3L54.74 37.29L54.54 36.89L54.33 36.66L54.23 36.43L54.16 36.13L54.1 35.9L54 35.42L54 35.05L53.96 34.88L53.85 34.75L53.71 34.49L53.56 34.12L53.5 33.93L53.28 33.62L53.26 33.38L53.23 33.19L53.27 32.91L53.37 32.63L53.38 32.5L53.47 32.21L53.54 32.09L53.7 31.88L53.79 31.75L53.82 31.51L53.8 31.34L53.72 31.23L53.64 31.04L53.58 30.85L53.59 30.79L53.68 30.66L53.59 30.36L53.54 30.16L53.4 29.96L53.42 29.9L53.38 29.8L53.31 29.57L53.08 29.24L52.8 28.92L52.61 28.67L52.44 28.35L52.45 28.24L52.51 28.14L52.58 27.92L52.64 27.69L52.58 27.64L52.68 27.29L52.72 27.04L52.61 26.84L52.49 26.79L52.43 26.65L52.36 26.6L52.36 26.52L52.07 26.63L51.97 26.61L51.86 26.68L51.64 26.67L51.49 26.48L51.4 26.25L51.2 26.05L50.99 26.05L50.75 26.05L50.52 26.09L50.29 26.16L49.86 26.34L49.7 26.44L49.45 26.53L49.21 26.45L49.08 26.45L48.89 26.39L48.71 26.39L48.38 26.45L48.19 26.54L47.91 26.65L47.86 26.64L47.78 26.64L47.5 26.5L47.25 26.26L47.01 26.09L46.82 25.89L46.75 25.87L46.55 25.74L46.4 25.57L46.35 25.46L46.32 25.23L46.2 25.05L46.09 24.92L46.02 24.88L45.95 24.82L45.92 24.68L45.88 24.62L45.8 24.57L45.65 24.44L45.53 24.41L45.47 24.33L45.47 24.28L45.39 24.21L45.37 24.15L45.32 23.91L45.36 23.77L45.24 23.53L45.1 23.42L45.23 23.36L45.36 23.14L45.43 22.98L45.4 22.81L45.48 22.66L45.51 22.37L45.48 22.06L45.45 21.9L45.48 21.75L45.41 21.6L45.26 21.47L45.27 21.34L45.29 21.19L45.39 21.11L45.48 20.94L45.46 20.84L45.56 20.62L45.71 20.42L45.81 20.37L45.88 20.19L45.89 20.02L45.99 19.83L46.17 19.72L46.35 19.4L46.49 19.28L46.75 19.24L46.97 19.03L47.11 18.95L47.34 18.69L47.27 18.3L47.38 18.03L47.42 17.87L47.6 17.66L47.87 17.52L48.08 17.39L48.27 17.07L48.35 16.87L48.56 16.88L48.72 17.01L48.99 16.99L49.28 17.06L49.4 17.06L49.66 16.89L49.96 16.83L50.14 16.71L50.41 16.61L50.88 16.56L51.34 16.53L51.48 16.58L51.74 16.45L52.04 16.45L52.15 16.52L52.34 16.51L52.64 16.38L52.84 16.42L52.83 16.57L53.06 16.46L53.08 16.52L52.94 16.67L52.94 16.82L53.04 16.89L53 17.16L52.82 17.32L52.87 17.49L53.02 17.49L53.09 17.64L53.19 17.69L53.52 17.8L53.63 17.77L53.87 17.82L54.23 17.96L54.36 18.24L54.61 18.3L55.01 18.43L55.3 18.58L55.44 18.5L55.57 18.36L55.51 18.12L55.59 17.97L55.79 17.82L55.98 17.78L56.36 17.85L56.45 17.98L56.56 17.99L56.65 18.04L56.92 18.08L56.99 18.18L57.36 18.17L57.63 18.26L57.9 18.35L58.03 18.4L58.25 18.3L58.36 18.21L58.6 18.18L58.8 18.22L58.88 18.38L58.94 18.27L59.16 18.35L59.38 18.37L59.52 18.29L59.6 18.18L59.58 18.17L59.65 18.02L59.71 17.79L59.75 17.71L59.76 17.71L59.86 17.45L59.99 17.23L60 17.22L59.97 16.98L60.04 16.86L59.94 16.71L60.04 16.6L59.88 16.62L59.64 16.55L59.45 16.73L59.03 16.77L58.81 16.6L58.51 16.59L58.44 16.72L58.25 16.76L57.98 16.59L57.68 16.6L57.51 16.29L57.31 16.11L57.45 15.87L57.27 15.72L57.58 15.42L58.01 15.41L58.12 15.18L58.65 15.22L58.99 15.02L59.31 14.93L59.77 14.92L60.25 15.14L60.65 15.26L60.98 15.21L61.21 15.24L61.54 15.08L61.58 14.94L61.51 14.73L61.35 14.62L61.2 14.58L61.1 14.49L60.74 14.22L60.43 14.11L60.19 13.92L60.39 13.87L60.62 13.61L60.46 13.49L60.87 13.36L60.87 13.3L60.62 13.35L60.4 13.37L60.21 13.47L59.95 13.49L59.71 13.6L59.73 13.8L59.86 13.87L60.15 13.85L60.09 13.96L59.79 14.02L59.41 14.2L59.26 14.14L59.32 13.99L59.02 13.9L59.06 13.84L59.33 13.74L59.25 13.66L58.82 13.59L58.8 13.47L58.54 13.51L58.44 13.68L58.22 13.91L58.23 13.99L58.09 14.06L58.01 14.03L57.93 14.4L57.79 14.53L57.69 14.75L57.78 14.93L57.81 15.05L58.05 15.15L58 15.23L57.67 15.24L57.55 15.34L57.32 15.51L57.23 15.36L57.24 15.3L57.07 15.29L56.92 15.26L56.59 15.34L56.78 15.52L56.64 15.57L56.48 15.57L56.34 15.41L56.29 15.48L56.35 15.66L56.49 15.81L56.38 15.88L56.54 16.02L56.67 16.11L56.68 16.29L56.42 16.2L56.5 16.36L56.33 16.39L56.43 16.67L56.25 16.67L56.02 16.54L55.92 16.29L55.87 16.08L55.76 15.94L55.62 15.76L55.6 15.67L55.55 15.65L55.54 15.58L55.39 15.48L55.37 15.33L55.39 15.12L55.43 15.02L55.38 14.97L55.32 14.95L55.25 14.85L55.13 14.78L54.86 14.67L54.7 14.56L54.45 14.46L54.22 14.24L54.27 14.21L54.14 14.08L54.14 13.98L53.96 13.93L53.88 14.06L53.79 13.96L53.8 13.85L53.81 13.84L53.87 13.82L53.65 13.77L53.42 13.88L53.44 14.04L53.41 14.12L53.5 14.28L53.76 14.44L53.9 14.7L54.21 14.95L54.42 14.95L54.49 15.01L54.41 15.08L54.66 15.19L54.87 15.28L55.1 15.44L55.13 15.5L55.08 15.61L54.93 15.47L54.69 15.42L54.57 15.62L54.77 15.73L54.74 15.9L54.62 15.92L54.47 16.18L54.36 16.21L54.36 16.11L54.41 15.94L54.47 15.88L54.37 15.7L54.28 15.54L54.17 15.5L54.08 15.37L53.91 15.31L53.79 15.19L53.58 15.17L53.36 15.03L53.11 14.82L52.92 14.64L52.83 14.34L52.7 14.3L52.47 14.2L52.34 14.24L52.18 14.38L52.07 14.41L51.81 14.58L51.27 14.5L50.86 14.6L50.83 14.79L50.84 14.97L50.58 15.17L50.23 15.24L50.2 15.34L50.03 15.52L49.92 15.77L50.03 15.95L49.87 16.09L49.81 16.29L49.6 16.35L49.4 16.59L49.05 16.6L48.79 16.59L48.61 16.7L48.51 16.82L48.37 16.79L48.27 16.69L48.19 16.51L47.93 16.46L47.82 16.54L47.67 16.5L47.53 16.53L47.57 16.29L47.54 16.09L47.42 16.07L47.35 15.95L47.38 15.74L47.49 15.63L47.51 15.51L47.56 15.32L47.56 15.19L47.5 15.08L47.49 14.97L47.5 14.75L47.39 14.61L47.78 14.39L48.12 14.45L48.5 14.44L48.79 14.5L49.02 14.48L49.47 14.49L49.62 14.3L49.67 13.68L49.38 13.36L49.18 13.2L48.75 13.08L48.72 12.85L49.08 12.79L49.55 12.87L49.46 12.51L49.73 12.65L50.37 12.4L50.46 12.15L50.7 12.09L50.92 12.03L51.06 11.94L51.31 11.48L51.69 11.35L51.92 11.36L51.97 11.3L52.2 11.28L52.26 11.35L52.44 11.19L52.38 11.08L52.37 10.9L52.26 10.73L52.25 10.41L52.29 10.33L52.37 10.23L52.62 10.21L52.72 10.13L52.94 10.04L52.93 10.2L52.85 10.3L52.88 10.39L53.03 10.44L52.96 10.55L52.88 10.52L52.68 10.74L52.76 10.89L52.76 11.01L53.04 11.09L53.04 11.2L53.32 11.14L53.48 11.05L53.79 11.18L53.92 11.28L54.11 11.18L54.55 11.04L54.9 10.94L55.17 10.99L55.19 11.06L55.46 11.07L55.52 10.93L55.91 10.83L55.85 10.57L55.86 10.33L55.99 10.14L56.26 10.03L56.48 10.26L56.7 10.26L56.75 10.02L56.79 9.84L56.68 9.88L56.51 9.76L56.48 9.59L56.83 9.5L57.18 9.45L57.49 9.51L57.77 9.5L58.09 9.32L57.8 9.18L57.29 9.2L56.8 9.32L56.35 9.38L56.19 9.21L55.92 9.11L55.98 8.8L55.85 8.52L55.98 8.34L56.23 8.15L56.87 7.81L57.06 7.74L57.03 7.61L56.64 7.46L56.16 7.55L55.89 7.77L55.94 7.96L55.49 8.21L54.96 8.48L54.76 8.92L54.95 9.14L55.22 9.31L54.96 9.66L54.67 9.73L54.57 10.25L54.41 10.55L54.07 10.52L53.92 10.76L53.6 10.78L53.51 10.48L53.27 10.13L53.06 9.69L52.88 9.5L52.33 9.86L51.96 9.93L51.57 9.77L51.47 9.44L51.39 8.72L51.64 8.52L52.38 8.26L52.92 7.94L53.43 7.5L54.1 6.9L54.57 6.67L55.33 6.28L55.94 6.14L56.4 6.16L56.82 5.9L57.33 5.92L57.82 5.85L58.69 6.08L58.33 6.16L58.64 6.36L58.93 6.25L59.38 6.44L60.14 6.51L61.19 6.87L61.41 7.01L61.42 7.22L61.12 7.38L60.66 7.47L59.42 7.23L59.22 7.27L59.67 7.5L59.71 7.96L60.06 8.05L60.28 8.14L60.32 7.98L60.14 7.85L60.33 7.73L61 7.93L61.23 7.85L61.05 7.62L61.69 7.32L61.95 7.34L62.21 7.45L62.37 7.23L62.14 7.05L62.27 6.86L62.07 6.67L62.85 6.77L63.01 6.94L62.65 6.98L62.66 7.15L62.87 7.26L63.3 7.19L63.37 6.99L63.95 6.84L64.92 6.58L65.13 6.59L64.86 6.78L65.2 6.81L65.4 6.71L65.92 6.7L66.33 6.57L66.65 6.76L66.97 6.55L66.68 6.37L66.82 6.27L67.64 6.36L68.02 6.46L69.03 6.82L69.22 6.65L68.93 6.49L68.93 6.42L68.59 6.39L68.68 6.24L68.53 6L68.53 5.9L69.04 5.62L69.22 5.34L69.43 5.28L70.16 5.36L70.22 5.53L69.96 5.78L70.13 5.88L70.22 6.1L70.16 6.53L70.46 6.72L70.34 6.93L69.8 7.37L70.12 7.41L70.23 7.3L70.53 7.22L70.61 7.07L70.85 6.92L70.69 6.74L70.82 6.54L70.51 6.51L70.44 6.34L70.67 6.03L70.31 5.77L70.8 5.56L70.74 5.34L70.88 5.33L71.02 5.51L70.91 5.81L71.21 5.86L71.08 5.64L71.55 5.52L72.13 5.5L72.64 5.68L72.39 5.42L72.36 5.09L72.85 5.02L73.52 5.04L74.12 5L73.89 4.83L74.21 4.63L74.53 4.62L75.07 4.47L75.81 4.43L75.9 4.34L76.63 4.31L76.86 4.38L77.48 4.22L77.99 4.22L78.07 4.09L78.33 3.96L78.99 3.83L79.46 3.93L79.08 4L79.71 4.05ZM63.64 15.16L63.78 15.38L63.91 15.39L64 15.48L63.77 15.5L63.72 15.74L63.67 15.85L63.57 15.92L63.58 16.08L63.67 16.31L63.93 16.37L64.12 16.53L64.52 16.58L64.95 16.5L64.98 16.43L64.93 16.21L64.97 15.88L64.75 15.78L64.82 15.56L64.64 15.55L64.7 15.28L64.96 15.36L65.2 15.26L65 15.07L64.92 14.89L64.7 14.97L64.67 15.2L64.58 15L64.57 14.92L64.64 14.8L64.58 14.69L64.26 14.58L64.14 14.3L63.98 14.22L63.97 14.12L64.24 14.15L64.25 13.92L64.49 13.87L64.73 13.92L64.78 13.62L64.73 13.42L64.46 13.44L64.22 13.36L63.9 13.5L63.64 13.56L63.51 13.75L63.24 13.8L62.97 14.12L63.22 14.42L63.19 14.63L63.5 14.99L63.64 15.16ZM23.93 3.88L23.81 3.89L23.29 3.87L23.21 3.78L23.77 3.79L23.97 3.85L23.93 3.88ZM19.39 3.83L18.87 3.92L18.46 3.82L18.69 3.72L19.09 3.69L19.48 3.73L19.39 3.83ZM56.87 3.78L56.25 3.91L55.76 3.83L55.95 3.75L55.78 3.65L56.36 3.59L56.47 3.71L56.87 3.78ZM19.54 3.55L19.2 3.61L18.74 3.61L18.74 3.56L19.03 3.47L19.18 3.48L19.54 3.55ZM23.38 3.72L22.97 3.78L22.74 3.71L22.62 3.59L22.6 3.46L22.96 3.47L23.12 3.5L23.46 3.6L23.38 3.72ZM22.21 3.63L22.31 3.76L21.86 3.73L21.4 3.63L20.78 3.62L21.05 3.52L20.72 3.45L20.7 3.33L21.24 3.37L21.99 3.48L22.21 3.63ZM79.19 3.64L77.62 3.76L78.13 3.35L78.36 3.31L78.57 3.33L79.27 3.51L79.19 3.64ZM55.07 3.2L55.98 3.44L55.29 3.56L55.13 3.79L54.89 3.85L54.76 4.1L54.42 4.12L53.82 3.93L54.07 3.82L53.66 3.73L53.12 3.46L52.9 3.22L53.66 3.11L53.81 3.22L54.21 3.21L54.31 3.11L54.72 3.1L55.07 3.2ZM57.07 2.98L57.61 3.09L57.2 3.26L56.4 3.3L55.58 3.25L55.53 3.16L55.13 3.15L54.82 3.01L55.68 2.93L56.09 3L56.37 2.91L57.07 2.98ZM64.2 2.94L63.83 2.98L63.58 3.01L63.54 3.06L63.22 3.11L62.92 3.03L63.08 2.94L62.46 2.93L63 2.87L63.42 2.87L63.48 2.95L63.64 2.88L63.9 2.83L64.31 2.89L64.2 2.94ZM77.76 3.46L77.15 3.5L76.38 3.41L75.92 3.29L75.71 3.07L75.33 3L76.05 2.79L76.65 2.72L77.19 2.88L77.83 3.18L77.76 3.46ZM25.83 3.22L26.16 3.32L25.78 3.41L25.27 3.64L24.78 3.67L24.2 3.63L23.9 3.5L23.91 3.39L24.13 3.3L23.62 3.31L23.31 3.2L23.14 3.06L23.33 2.92L23.52 2.83L23.81 2.81L23.68 2.74L24.33 2.72L24.69 2.89L25.15 2.95L25.61 3.01L25.83 3.22ZM30.97 2.14L31.71 2.17L32.31 2.21L32.82 2.29L32.81 2.38L32.13 2.51L31.46 2.57L31.21 2.64L31.81 2.64L31.16 2.83L30.7 2.92L30.23 3.17L29.65 3.22L29.48 3.29L28.64 3.32L29.02 3.36L28.83 3.42L29.06 3.57L28.79 3.68L28.36 3.76L28.23 3.89L27.84 3.98L27.88 4.05L28.36 4.04L28.36 4.11L27.62 4.3L26.9 4.21L26.08 4.26L25.67 4.22L25.14 4.21L25.11 4.06L25.62 3.99L25.48 3.76L25.65 3.74L26.4 3.88L26.02 3.68L25.57 3.62L25.79 3.5L26.28 3.42L26.36 3.31L25.97 3.19L25.85 3.03L26.61 3.05L26.83 3.08L27.26 2.97L26.64 2.93L25.67 2.95L25.18 2.84L24.94 2.72L24.62 2.63L24.56 2.52L24.97 2.46L25.3 2.45L25.84 2.4L26.25 2.29L26.59 2.3L26.89 2.39L27.11 2.22L27.47 2.17L27.97 2.14L28.82 2.12L28.97 2.16L29.77 2.11L30.37 2.12L30.97 2.14ZM42.47 2.02L44.21 2.26L43.7 2.38L42.63 2.4L41.14 2.43L41.28 2.48L42.26 2.45L43.1 2.56L43.64 2.46L43.87 2.57L43.56 2.75L44.27 2.64L45.62 2.52L46.45 2.58L46.61 2.71L45.48 2.93L45.32 3L44.43 3.06L45.07 3.07L44.75 3.3L44.53 3.5L44.54 3.85L44.87 4.05L44.43 4.06L43.98 4.16L44.49 4.33L44.56 4.59L44.26 4.62L44.62 4.89L44 4.91L44.32 5.03L44.23 5.14L43.84 5.19L43.45 5.19L43.8 5.4L43.81 5.54L43.26 5.41L43.11 5.5L43.49 5.58L43.85 5.77L43.96 6.02L43.46 6.08L43.25 5.96L42.9 5.78L43 5.99L42.68 6.15L43.41 6.16L43.79 6.18L43.05 6.45L42.29 6.7L41.48 6.81L41.17 6.81L40.89 6.93L40.5 7.26L39.9 7.47L39.71 7.49L39.34 7.56L38.94 7.64L38.7 7.83L38.7 8.05L38.56 8.25L38.11 8.5L38.22 8.74L38.09 9L37.95 9.3L37.56 9.32L37.15 9.07L36.59 9.07L36.32 8.9L36.14 8.59L35.66 8.2L35.52 8L35.48 7.72L35.09 7.44L35.19 7.21L35.01 7.1L35.28 6.73L35.7 6.62L35.81 6.49L35.87 6.24L35.55 6.35L35.4 6.4L35.15 6.45L34.81 6.34L34.79 6.13L34.9 5.97L35.16 5.96L35.72 6.04L35.25 5.85L35 5.74L34.72 5.78L34.49 5.71L34.8 5.42L34.63 5.3L34.41 5.09L34.08 4.76L33.72 4.64L33.73 4.51L32.98 4.32L32.39 4.3L31.65 4.31L30.97 4.34L30.65 4.24L30.17 4.04L30.9 3.94L31.45 3.93L30.27 3.85L29.64 3.72L29.68 3.6L30.73 3.45L31.75 3.3L31.85 3.19L31.1 3.07L31.35 2.95L32.31 2.73L32.71 2.7L32.6 2.56L33.25 2.48L34.11 2.43L34.96 2.43L35.27 2.52L36 2.35L36.67 2.47L37.06 2.49L37.63 2.59L36.97 2.43L37.01 2.29L37.94 2.11L38.92 2.12L39.27 2.01L40.25 1.98L42.47 2.02Z" fill="#d9c77e" fill-rule="evenodd" stroke="#375b52" stroke-width="0.32" stroke-linejoin="round" vector-effect="non-scaling-stroke"/>
</svg>
